<?xml version="1.0" encoding="UTF-8"?>
<svg id="Layer_1" xmlns="http://www.w3.org/2000/svg" viewBox="0 0 1591.48 856.19">
  <defs>
    <style>
      .cls-1 {
        fill: #ffefb5;
      }
    </style>
  </defs>
  <g>
    <g>
      <path class="cls-1" d="M175.02,625.83c-18.19,0-28.2-9.59-28.2-27,0-15.23,7.02-34.33,19.26-52.4,18.41-27.18,37.65-41.78,53.69-49.57-5.47-.98-10.49-2.19-15.22-3.34-8.17-1.98-15.22-3.69-22.33-3.69-6.05,0-14.46,1.88-18.83,5.46-3.48,2.82-6.97,8.09-6.97,13.54s2.43,8.37,4.52,9.04c.52.17.96.24,1.2.24l9.43-1.89-3.99,8.86c-2.66,5.91-9.33,8.55-14.76,8.55-11.65,0-18.6-6.5-18.6-17.4,0-11.48,11.26-22.01,21.07-29.9,9.46-7.7,27.04-15.9,40.93-15.9,15.56,0,29.28,4.45,40.3,8.02,7.9,2.56,14.73,4.78,20.1,4.78,1.85,0,2.13-.24,2.55-.6l6.57-5.63,1.6,8.51c.48,2.56-.15,5.15-1.79,7.29-1.7,2.23-5.29,5.01-12.72,5.61-14.8,1.04-41.57,37.77-57.91,71.21-7.02,14.37-10.68,25.72-10.89,33.74-.06,2.52.37,4.46,1.19,5.29.5.51,1.38.77,2.61.77,3.47,0,13.09-2.79,27.71-28.47,1.62-6.26,7.11-19.91,12.88-30.69,20.43-37.42,44.2-54.84,74.81-54.84.2,0,.39,0,.58,0l2.24-7.28c1.58-5.13,8.12-10.33,17.58-10.33,13.76,0,23,10.45,23,26,0,18.96-9.67,42.01-28.74,68.52-16.45,22.87-41.74,53.28-71.26,53.28-12.99,0-22.41-3.45-27.99-10.26-2.22-2.71-3.77-5.87-4.64-9.45-8.51,9.73-21.57,19.91-38.97,19.91ZM299.43,509.67c-6.6,3.83-18.33,15.99-36.53,52.4-6.76,13.32-13.42,32.08-13.07,42.19.18,6.48,1.81,6.77,5.2,6.77,14.48,0,30.8-22.3,43.41-41.72,12.31-18.94,25.59-50.12,25.59-67.48,0-7.53-2.86-9-7.8-9-.85,0-1.49.15-1.78.26l-3.03,3.63c4.96,1.83,7.3,5.34,7.4,8.87.27,4.09-2.37,7.62-6.62,8.84l-6.66,1.9.29-6.92c.03-.64-.08-.99-.17-1.08-.12-.12-.56-.31-1.24-.31-.74,0-1.72.15-2.96.64l-2.74,3.28.7-2.28Z"/>
      <path d="M196.22,475.43c25.8,0,46,12.8,60.4,12.8,3,0,4.4-.6,5.8-1.8.6,3.2-2.6,6.4-10,7-20,1.4-49,47.4-62,74-8.4,17.2-11.2,28.2-11.4,35.8-.2,8.4,3.8,11.2,8.8,11.2,9,0,20.2-10,32.4-31.6,1.2-5.2,6.6-19,12.6-30.2,17.8-32.6,39.4-52.2,70.4-52.2,6.6,0,10.6,2.4,10.6,5.4.2,2.2-1.6,3.4-3,3.8.2-4.8-3.2-6.6-6.4-6.6-16.6,0-37.2,39.2-46,56.8-6.6,13-14,32.8-13.6,44.6.2,7.4,2.6,11.6,10.2,11.6,15.4,0,30.6-17.8,47.6-44,13-20,26.4-51.8,26.4-70.2,0-9.2-4-14-12.8-14-2.2,0-4.4.6-5.4,1.8.8-2.6,5-6.8,12.8-6.8,11.2,0,18,8.4,18,21,0,16-7.8,37.8-27.8,65.6-16.4,22.8-40.4,51.2-67.2,51.2-21.6,0-31.6-10.2-27.6-30.2-8.6,14.6-23.6,30.4-44,30.4-14.8,0-23.2-6.8-23.2-22,0-13,5.8-31,18.4-49.6,25.2-37.2,54-52.6,76.6-55.6-2.06.11-4.06.17-6,.17-25.29,0-41.51-8.97-58.6-8.97-6.6,0-16.4,2-22,6.6-4.2,3.4-8.8,10-8.8,17.4s3.6,12.4,8,13.8c.88.29,1.86.48,2.72.48.31,0,.61-.02.88-.08-1.8,4-6.8,5.6-10.2,5.6-7.2,0-13.6-3-13.6-12.4s10-18.6,19.2-26c8.6-7,25-14.8,37.8-14.8M196.22,465.43c-15.2,0-33.67,8.56-44.08,17.02-11.33,9.12-22.92,20.26-22.92,33.78s9.26,22.4,23.6,22.4c7.04,0,15.75-3.55,19.32-11.5l7.97-17.72-17.73,3.55c-.36-.46-.97-1.72-.97-4.13,0-3.61,2.56-7.58,5.09-9.63l.03-.02.03-.02c2.9-2.39,9.93-4.33,15.65-4.33,6.51,0,13.3,1.64,21.15,3.55.82.2,1.65.4,2.49.6-13.92,8.97-29.21,22.94-43.92,44.64-12.79,18.88-20.12,39-20.12,55.21,0,10.35,3.13,18.46,9.31,24.09,5.76,5.25,13.79,7.91,23.89,7.91,11.58,0,22.55-3.99,32.59-11.85,1.64-1.28,3.19-2.63,4.66-4,.73,1.25,1.56,2.44,2.49,3.57,6.58,8.02,17.29,12.09,31.86,12.09,31.82,0,58.22-31.59,75.32-55.36,19.69-27.38,29.68-51.41,29.68-71.44,0-8.63-2.47-16.12-7.16-21.67-5.07-6.01-12.48-9.33-20.84-9.33-12.43,0-20.3,7.18-22.36,13.86l-1.17,3.8c-15.9.62-30.41,5.97-43.17,15.93-12.03,9.39-22.78,22.94-32.87,41.42l-.02.04-.02.04c-5.82,10.87-11.21,24.21-13.13,31.13-11.46,19.96-19.05,24.23-21.85,25.15,0-.21,0-.45,0-.71.19-7.27,3.69-17.93,10.39-31.65,5.79-11.86,16.02-29.85,27.36-44.79,16.6-21.88,24.87-23.51,26.36-23.62h.05s.05,0,.05,0c9.26-.75,13.97-4.53,16.29-7.56,2.5-3.28,3.47-7.27,2.73-11.25l-3.19-17.01-12.44,10.66h0c-4.58,0-11.05-2.1-18.55-4.53-11.36-3.68-25.5-8.27-41.84-8.27h0ZM286.63,534.27l13.85-16.62-.23,5.4,13.32-3.81c.95-.27,1.85-.63,2.69-1.05-4.41,15.78-13.44,35.17-22.02,48.39-10.99,16.94-27.01,39.45-39.22,39.45-.02,0-.04,0-.07,0-.06-.45-.12-1.06-.14-1.87v-.03s0-.03,0-.03c-.27-8.05,5.11-25.13,12.52-39.73v-.03s.03-.03.03-.03c2.61-5.21,10.53-21.07,19.35-33.77.64-.93,1.27-1.81,1.88-2.64l-1.96,6.39h0Z"/>
    </g>
    <g>
      <path class="cls-1" d="M342.22,622.03c-18.28,0-29.2-9.57-29.2-25.6,0-12.1,7.14-27.78,17.76-39.03,15.48-16.35,35.07-22.17,48.23-22.17s21.6,7.15,21.6,17.8c0,1.83-.21,3.58-.6,5.23l3.79-5.96-8.16,31c-2.61,9.93-11.34,18.94-18.21,24.74-8.35,6.93-19.03,13.98-35.23,13.98ZM358.11,577.6c-7.82,12.6-11.49,24-11.49,28.23,0,2.45.55,2.8,2.6,2.8,4.35,0,12.12-2.73,20.92-10.37,6.08-5.18,12.22-12.24,16.46-18.91l5.59-8.78c-6.75,5.69-16.63,8.66-26.17,8.66-2.86,0-5.59-.59-7.91-1.63ZM368.85,561.59c-.5.7-1.05,1.48-1.64,2.31,1.4-1.24,2.94-2.92,4.51-5.06,1.38-1.88,2.52-3.77,3.42-5.54-1.53,1.91-3.06,3.96-4.26,5.57-.68.91-1.36,1.82-2.03,2.71Z"/>
      <path d="M379.02,540.23c10,0,16.6,5,16.6,12.8,0,13.2-14.6,21.2-29.6,21.2-4,0-7.8-1.6-9.2-3.8-9.6,14-15.2,28.8-15.2,35.4,0,5.4,3,7.8,7.6,7.8,6,0,15-3.6,24.2-11.6,6.8-5.8,13.2-13.4,17.4-20-2,7.6-8.8,15.6-16.6,22.2-9.4,7.8-18.8,12.8-32,12.8-15.8,0-24.2-7.4-24.2-20.6,0-10.2,6.2-24.8,16.4-35.6,14.4-15.2,32.4-20.6,44.6-20.6M362.2,571.65c8.93,0,20.42-17.61,20.42-26.03,0-2.2-.6-3-2-3-4.4,0-10.2,8.6-15.8,16-2,2.8-5.2,7.4-7.2,10.6.8,1.4,2.4,2.2,4,2.4.19.02.39.03.58.03M416.81,522.56l-13.3,20.9c-3.9-8.11-12.9-13.24-24.49-13.24-14.21,0-35.29,6.23-51.86,23.72-11.45,12.13-19.14,29.19-19.14,42.48,0,12.02,5.25,19.05,9.66,22.84,6,5.15,14.25,7.76,24.54,7.76,17.79,0,29.38-7.64,38.39-15.1l.04-.03.04-.03c7.41-6.27,16.87-16.1,19.81-27.29l16.32-62.01h0ZM366.02,584.23c4.09,0,8.11-.47,11.93-1.38-3.35,4.24-7.26,8.36-11.02,11.57l-.04.03-.04.03c-6.18,5.37-11.46,7.81-14.85,8.71.94-4.09,3.62-11.33,8.35-19.61,1.81.42,3.72.65,5.66.65h0Z"/>
    </g>
    <g>
      <path class="cls-1" d="M401.62,622.23c-13.56,0-23.4-8.83-23.4-21,0-15.36,12.8-35.15,24.09-52.62l.71-1.1c4.56-7.03,15.98-23.99,22.56-32.83,6.65-9.35,10.23-12.46,18.24-12.46,1.29,0,3.11.04,5.12.09,2.36.05,5.02.11,7.28.11,2.78,0,4.73-1.86,7.19-4.5,1.88-2.02,4-4.3,7.21-4.3h10.13l-6.16,8.04c-6.58,8.58-29.81,41.61-43.07,63.91-6.38,10.81-14.33,24.29-17.55,31.32-2.84,6.12-3.15,9.12-3.15,10.12,0,.07,0,.14,0,.2.06,0,.12,0,.2,0,1.43,0,5.79-1.9,12.02-9.08,5.82-6.78,9.46-12.4,13.46-19.24l19.14-32.8-9.99,36.64c-1.9,6.96-6.99,15.76-13.62,23.53-6.52,7.45-15.83,15.96-30.4,15.96Z"/>
      <path d="M470.62,498.63c-7.2,9.4-30.2,42.2-43.4,64.4-7.2,12.2-14.6,24.8-17.8,31.8-2.6,5.6-3.6,9.6-3.6,12.2,0,2.8,1.2,5.2,5.2,5.2,3.6,0,9.2-3.2,15.8-10.8,6-7,9.8-12.8,14-20-1.8,6.6-6.8,14.8-12.6,21.6-7,8-15,14.2-26.6,14.2s-18.4-7.2-18.4-16c0-14.2,13.4-34.6,24-51,4.8-7.4,16-24,22.4-32.6,6.4-9,8.6-10.4,14.2-10.4,2.8,0,8.2.2,12.4.2,8.2,0,11.6-8.8,14.4-8.8M490.88,488.63h-20.26c-5.39,0-8.69,3.55-10.87,5.89-1.14,1.23-2.7,2.91-3.53,2.91-2.2,0-4.84-.06-7.17-.11-2.07-.05-3.86-.09-5.23-.09-11.12,0-15.86,5.48-22.29,14.52-6.42,8.64-17.49,25-22.7,33.04l-.72,1.11c-11.67,18.04-24.89,38.5-24.89,55.33,0,15.07,11.94,26,28.4,26s27.51-10.05,34.13-17.61l.04-.05.04-.05c7.19-8.43,12.53-17.71,14.64-25.46l17.74-65.05c4.55-6.46,8.28-11.6,10.35-14.3l12.32-16.08h0ZM423.05,590.23c3.8-6.89,8.79-15.34,12.79-22.12,4.22-7.1,9.47-15.31,14.86-23.46l-18.51,31.73c-2.9,4.96-5.6,9.25-9.14,13.84h0Z"/>
    </g>
    <g>
      <path class="cls-1" d="M457.42,622.03c-18.28,0-29.2-9.42-29.2-25.2,0-13.18,7.92-29.81,19.7-41.37,18.12-17.6,37.29-20.23,47.1-20.23,11.24,0,18.8,7.39,18.8,18.4,0,3.2-.55,6.33-1.53,9.24l6.73-10.57-8.16,31c-2.61,9.93-11.34,18.94-18.21,24.74-8.35,6.93-19.03,13.98-35.23,13.98ZM480.92,566.29c-2.24,3.38-4.7,7.27-7.44,11.75-8.3,13.7-11.27,23.65-11.27,28.39,0,1.55.26,2,2,2,4.35,0,12.48-2.66,21.12-10.17,6.08-5.18,12.22-12.24,16.46-18.91l3.14-4.93c-3.4,3.12-7.49,5.02-11.72,5.02-7.53,0-12.4-4.55-12.4-11.6,0-.52.04-1.03.1-1.54Z"/>
      <path d="M495.02,540.23c9.2,0,13.8,5.8,13.8,13.4,0,10.4-7.6,20.8-15.6,20.8-5.4,0-7.4-3-7.4-6.6,0-7.8,14.6-16.6,14.6-22.6,0-1.6-1.2-2.6-2.8-2.6-6.4,0-15.2,11.2-28.4,32.8-8,13.2-12,24.4-12,31,0,4.6,2.8,7,7,7,6,0,15.2-3.4,24.4-11.4,6.8-5.8,13.2-13.4,17.4-20-2,7.6-8.8,15.6-16.6,22.2-9.4,7.8-18.8,12.8-32,12.8-14.4,0-24.2-6.4-24.2-20.2,0-12.2,7.6-27.4,18.2-37.8,14.2-13.8,30.4-18.8,43.6-18.8M532.01,522.56l-14.5,22.78c-3.11-9.2-11.5-15.12-22.49-15.12s-31.2,2.81-50.57,21.63c-12.91,12.67-21.23,30.31-21.23,44.97,0,12.32,5.73,19.39,10.54,23.15,5.98,4.68,13.94,7.05,23.66,7.05,17.79,0,29.38-7.64,38.39-15.1l.04-.03.04-.03c7.41-6.27,16.87-16.1,19.81-27.29l16.32-62.01h0ZM467.74,602.84c1.05-4.52,3.87-12.06,10.03-22.23.5-.82.99-1.61,1.47-2.39,2.84,3.59,7.27,5.86,12.66,6.17-3.05,3.69-6.47,7.21-9.77,10.03l-.04.03-.04.03c-5.7,4.96-10.81,7.36-14.32,8.36h0Z"/>
    </g>
    <g>
      <path class="cls-1" d="M522.42,622.03c-16.77,0-27.6-10.21-27.6-26,0-6.35,1.74-22.91,17.81-39.48,13.76-14.15,29.7-21.32,47.39-21.32,12.92,0,21.6,8.84,21.6,22,0,11.08-3.46,21.96-10.57,33.26-16.57,26.07-35.59,31.54-48.63,31.54ZM559.41,549.91c-3.87,3.41-10.67,11.67-20.4,29.51-6.08,11.08-11.03,22.78-12.28,28.78,5.37-5.03,14.61-21.22,17.95-27.05,7.63-13.49,12.69-25.02,14.73-31.24Z"/>
      <path d="M560.02,540.23c11.2,0,16.6,7.8,16.6,17,0,8.2-2,18.2-9.8,30.6-13.6,21.4-29.4,29.2-44.4,29.2-12.4,0-22.6-6.6-22.6-21,0-8.6,3.4-22.6,16.4-36,14.2-14.6,29.2-19.8,43.8-19.8M524.82,614.63c6,0,15.4-15.6,24.2-31,8.6-15.2,16.4-32.6,16.4-38,0-1.8-1-2.8-2.6-2.8-8.2,0-21,21-28.2,34.2-5.6,10.2-13.2,26.6-13.2,33.6,0,2.8,1.4,4,3.4,4M560.02,530.23c-19.09,0-36.24,7.68-50.97,22.83-17.36,17.89-19.23,36.01-19.23,42.97,0,18.54,13.1,31,32.6,31,14.3,0,35.07-5.87,52.84-33.84,7.65-12.16,11.36-23.92,11.36-35.96,0-15.9-10.94-27-26.6-27h0Z"/>
    </g>
    <g>
      <path class="cls-1" d="M635.59,622.02c-12.55-.56-20.98-8.83-20.98-20.59,0-7.74,3.15-16.85,8.66-25,1.64-2.46,3.37-4.98,5.07-7.47,2.63-3.83,6.02-8.78,8.51-12.86-3.48,3.04-8.58,8.34-15.67,17.57-6.07,8.03-13.39,19.13-18.63,28.24-3.75,6.49-5.51,10.51-6.2,12.56l11.01,8.26-16.17-.72c-12.55-.56-20.98-8.83-20.98-20.59,0-7.24,2.81-15.68,8.13-24.4,2.08-3.47,4.23-6.85,6.32-10.11,1.12-1.76,2.38-3.73,3.57-5.66-.5.64-1.02,1.34-1.56,2.09l-16.61,23.11,7.74-27.39c3.23-11.42,15.86-23.24,31.41-23.24,9.61,0,16.3,4.7,17.98,12.28,7.23-7.07,15.08-11.88,24.42-11.88,10.02,0,17.06,4.89,19.04,12.82,7.49-7.58,15.62-12.82,25.36-12.82,11.89,0,20.2,7.48,20.2,18.2,0,8.52-4.74,17.05-13.47,29.82-6.27,9.07-12.39,18.22-13.23,22.81,2.02-.6,5.92-2.91,11.13-8.91,5.82-6.79,9.46-12.4,13.46-19.24l19.14-32.81-9.99,36.64c-1.9,6.96-6.99,15.76-13.62,23.53-6.52,7.45-15.76,15.96-29.8,15.96s-22-8.01-22-20.4c0-10.32,5.66-20.23,14.15-31.94,4.49-6.27,7.42-10.69,9.31-13.82-3.48,3.04-8.59,8.34-15.7,17.6-6.07,8.03-13.39,19.13-18.63,28.24-3.75,6.49-5.51,10.51-6.2,12.56l11.01,8.26-16.17-.72Z"/>
      <path d="M609.22,540.83c9,0,13.4,4.8,13.4,11.2,0,4.4-2.6,10.4-6,15-.4.53-.27.89.04.89.16,0,.36-.09.56-.29,10-13.2,20.8-26.4,34.4-26.4,8.2,0,14.6,3.8,14.6,12.6,0,4-2.8,9.8-5.2,13.2-.38.62-.2.94.08.94.17,0,.37-.11.52-.34,10-13.2,20.8-26.4,34.4-26.4,8.2,0,15.2,4.4,15.2,13.2,0,7.4-4.8,15.6-12.6,27-9.4,13.6-14.2,21.4-14.2,26.6,0,2,1.2,4.2,4.2,4.2,3.6,0,9.2-3.2,15.8-10.8,6-7,9.8-12.8,14-20-1.8,6.6-6.8,14.8-12.6,21.6-7,8-15,14.2-26,14.2-11.6,0-17-6.6-17-15.4,0-8.2,4.2-16.6,13.2-29,7.6-10.6,13.6-19.8,13.6-23.6,0-1.2-.6-2.2-2.2-2.2-4.4,0-13.2,7.2-25.8,23.6-6.2,8.2-13.6,19.4-19,28.8-5.2,9-8.4,16.4-6.8,17.6-9-.4-16.2-5.8-16.2-15.6,0-6,2.4-14.2,7.8-22.2,8-12,17.8-25,17.8-30,0-1.2-.6-2.2-2.2-2.2-4.4,0-13.2,7.2-25.8,23.6-6.2,8.2-13.6,19.4-19,28.8-5.2,9-8.4,16.4-6.8,17.6-9-.4-16.2-5.8-16.2-15.6,0-6,2.4-13.6,7.4-21.8,7.2-12,15.6-23.4,15.6-27.8,0-1.6-.8-2.6-2.4-2.6-3.8,0-8.6,4.8-13.2,11.2,2.6-9.2,13.4-19.6,26.6-19.6M748.05,510.77l-26.95,46.21c.08-.85.12-1.7.12-2.55,0-7.19-2.95-13.49-8.31-17.74-4.51-3.57-10.35-5.46-16.89-5.46-9.08,0-16.95,4.02-23.69,9.53-4.19-5.97-11.5-9.53-20.71-9.53-8.63,0-16.16,3.63-22.67,8.72-.85-1.22-1.84-2.34-2.97-3.35-2.92-2.63-8.21-5.76-16.76-5.76-17.92,0-32.49,13.67-36.22,26.88l-15.48,54.78,7.71-10.72c.17,14.22,10.71,24.58,25.75,25.25l32.35,1.44-20.87-15.65c.88-1.91,2.27-4.63,4.43-8.37.87-1.52,1.81-3.1,2.78-4.71-.03.57-.04,1.14-.04,1.71,0,14.39,10.59,24.92,25.76,25.59l32.35,1.44-20.87-15.65c.88-1.91,2.27-4.63,4.43-8.37.5-.86,1.01-1.74,1.54-2.64v.04c0,15.19,10.85,25.4,27,25.4s26.91-10.05,33.52-17.61l.04-.05.04-.05c7.19-8.43,12.53-17.71,14.64-25.46l19.99-73.29h0Z"/>
    </g>
    <g>
      <path class="cls-1" d="M735.02,622.03c-18.28,0-29.2-9.57-29.2-25.6,0-12.1,7.14-27.78,17.76-39.03,15.48-16.35,35.07-22.17,48.23-22.17s21.6,7.15,21.6,17.8c0,11.72-8.46,19.73-19.2,23.57l1.34,2.35c.94,1.64,2.06,4.31,2.06,7.68,0,8.41-3.52,16.17-10.17,22.44-8.82,8.36-20.34,12.96-32.43,12.96ZM750.91,577.6c-7.52,12.21-11.5,24.1-11.5,28.62,0,2.8.51,2.8,2.4,2.8,2.18,0,9.21-2.91,15.57-9.63,5.02-5.25,9.72-13.03,8.93-16.99l-.73-3.67c-2.24.33-4.51.49-6.76.49-2.86,0-5.59-.58-7.9-1.62ZM761.64,561.59c-.5.7-1.05,1.48-1.63,2.31.69-.61,1.42-1.33,2.17-2.16l-.14-.68c-.13.18-.26.35-.4.53ZM764.26,559.2c.09-.12.17-.23.26-.35,1.38-1.88,2.52-3.77,3.42-5.54-1.44,1.79-2.87,3.71-4.04,5.27l.36.62Z"/>
      <path d="M771.82,540.23c10,0,16.6,5,16.6,12.8,0,13.2-14.6,21.2-29.6,21.2-4,0-7.8-1.6-9.2-3.8-9.6,14-15.2,29.2-15.2,35.8,0,5.4,2.6,7.8,7.4,7.8,4.2,0,12.4-4,19.2-11.2,4.4-4.6,11.6-14.4,10.2-21.4.8,1.4,1.4,3.2,1.4,5.2,0,5.2-1.6,12.2-8.6,18.8-7.6,7.2-17.8,11.6-29,11.6-15.8,0-24.2-7.4-24.2-20.6,0-10.2,6.2-24.8,16.4-35.6,14.4-15.2,32.4-20.6,44.6-20.6M755,571.65c8.93,0,20.42-17.61,20.42-26.03,0-2.2-.6-3-2-3-4.4,0-10.2,8.6-15.8,16-2,2.8-5.2,7.4-7.2,10.6.8,1.4,2.4,2.2,4,2.4.19.02.39.03.58.03M749.33,523.04l2.15,10.74c-10.53,3.53-21.8,9.91-31.53,20.18-11.45,12.13-19.14,29.19-19.14,42.48,0,12.02,5.25,19.05,9.66,22.84,6,5.15,14.25,7.76,24.54,7.76,13.37,0,26.11-5.09,35.88-14.34,7.66-7.23,11.72-16.24,11.72-26.06,0-2.59-.5-5.17-1.47-7.59,1.25-.65,2.46-1.35,3.61-2.12,8.81-5.82,13.66-14.31,13.66-23.89,0-13.42-10.94-22.8-26.6-22.8-4.97,0-10.78.76-16.94,2.5l-5.54-9.69h0ZM745.01,602.69c1.12-4.39,3.85-11.45,8.18-19.1,1.81.42,3.7.64,5.63.64.83,0,1.65-.02,2.47-.06-.58,2.41-3.32,7.38-7.49,11.74l-.02.02-.02.02c-3.13,3.32-6.36,5.48-8.74,6.73h0Z"/>
    </g>
  </g>
  <g>
    <g>
      <path class="cls-1" d="M48.8,748.24c-27.83,0-43.8-10.06-43.8-27.6s17.48-30.6,33.8-30.6c7.77,0,13.8,2.3,17.91,6.85l11.03,12.2-15.96-3.99c-1.23-.31-2.24-.45-3.19-.45-8.49,0-15.4,7.9-15.4,17.6,0,6.61,1.82,14.2,16,14.2,22.89,0,31.2-19.14,31.2-32,0-10.36-3.12-16.56-10.66-31.55-.7-1.4-1.44-2.86-2.21-4.41-5.89-11.78-7.13-22.08-7.13-28.64,0-18.71,11.41-35.32,27.51-43.11l-37.14.32,46.35-10.29c1.93-.43,4.54-.92,7.68-.92,26.08,0,43.6,12.94,43.6,32.2,0,18.15-16.11,26.6-27,26.6-4.71,0-8.22-.94-11.37-3.04l-10.57-7.05,12.54-2.05c7.72-1.26,14.01-8.92,14.01-17.06,0-.16,0-.34,0-.53l-7.86-8.47c-1.33-1.44-4.48-1.6-6.73-1.6-10.17,0-17,7.39-17,18.4,0,7.4,3.42,14.3,7.74,23.03,1.3,2.62,2.64,5.34,4,8.27,6.66,14.39,8.89,24.03,8.25,35.57-1.54,32.57-30.35,58.12-65.59,58.12Z"/>
      <path d="M104.8,590.84c23,0,38.6,10.8,38.6,27.2,0,15-13.6,21.6-22,21.6-3.6,0-6.2-.6-8.6-2.2,9.8-1.6,18.2-11,18.2-22,0-14.64-9.59-23.8-32.07-23.8-.24,0-.49,0-.73,0,1.8-.4,4-.8,6.6-.8M108.2,597.04c6.8,0,12,1.8,13.6,6-2.6-2.8-6.8-3.2-10.4-3.2-12.4,0-22,9-22,23.4,0,11,6.2,20.4,12.2,33.4,6.2,13.4,8.4,22.4,7.8,33.2-1.4,29.6-27.6,53.4-60.6,53.4-14.2,0-38.8-2.8-38.8-22.6,0-15.2,14.6-25.6,28.8-25.6,4.8,0,10.4,1,14.2,5.2-1.6-.4-3-.6-4.4-.6-10.8,0-20.4,9.6-20.4,22.6,0,15,10,19.2,21,19.2,25.6,0,36.2-21,36.2-37,0-12.6-4.2-19.8-13.4-38.2-5-10-6.6-19.2-6.6-26.4,0-22.4,19-42.8,42.8-42.8M104.8,580.84c-3.63,0-6.59.55-8.77,1.04l-92.68,20.59,68.57-.6c-10.12,9.69-16.52,23.24-16.52,37.97,0,7.1,1.33,18.22,7.66,30.87.77,1.55,1.51,3.02,2.22,4.42,7.37,14.65,10.13,20.14,10.13,29.31,0,1.52-.15,3.27-.48,5.12l-14.5-16.03c-3.5-3.87-10.1-8.49-21.62-8.49-9.39,0-18.9,3.43-26.11,9.4-8.18,6.79-12.69,16.09-12.69,26.2s4.76,32.6,48.8,32.6c37.9,0,68.89-27.62,70.59-62.88.68-12.28-1.77-22.91-8.71-37.92-1.05-2.28-2.09-4.41-3.11-6.47,5.11,3.29,10.33,3.67,13.83,3.67,6.84,0,15.41-2.82,21.96-8.67l6.07,6.54-3.48-9.15c4.44-5.02,7.45-11.76,7.45-20.32,0-11.26-5.3-21.19-14.93-27.94-8.64-6.06-20.28-9.26-33.67-9.26h0ZM100.31,629.35c-.58-2.09-.91-4.11-.91-6.11,0-8.27,4.6-13.4,12-13.4,2.07,0,2.99.19,3.35.3l6.17,6.65c-.66,5.66-5.34,10.06-9.73,10.78l-10.88,1.78h0ZM49.2,731.44c-10.19,0-11-3.99-11-9.2,0-7.78,5.4-12.6,10.4-12.6.33,0,.9.03,1.97.3l22.63,5.66c-3.16,7.99-10.2,15.83-24.01,15.83h0Z"/>
    </g>
    <g>
      <path class="cls-1" d="M178,736.44c-11.3,0-19-4.55-21.72-12.47-.12.14-.24.27-.36.4-5.34,5.91-11.42,11.67-21.93,11.67-14.11,0-22.2-8.24-22.2-22.6,0-12.3,6.72-27.17,17.54-38.8,15.55-16.95,31.54-25.19,48.86-25.19,5.41,0,9.47,1.43,12.06,4.26,1.06,1.16,2.22,2.94,2.73,5.52,2.09.33,5.73.62,12.01.62,4.88,0,7.23-2.27,9.3-4.28,1.54-1.49,3.28-3.18,5.99-3.18.69,0,1.37.12,2.02.36l6.05,2.2-3.63,5.32c-11.06,16.2-25.32,38.73-31.77,50.23-3.27,5.77-4.41,8.9-4.79,10.52,2.04-.68,5.74-2.99,10.65-8.65,5.82-6.79,9.46-12.4,13.46-19.24l19.13-32.8-9.99,36.63c-1.9,6.96-6.99,15.76-13.62,23.53-6.52,7.45-15.76,15.95-29.8,15.95ZM181.4,663.88c-3.12,2.37-9.97,9.22-22.6,28.86l-1.07,1.71c-2.89,4.62-10.46,16.73-13.48,24.35,1.1-1.02,2.46-2.44,4.12-4.4,4.59-5.36,12.96-17.71,23.56-34.8l9.45-15.69s0-.02,0-.03Z"/>
      <path d="M178.2,654.44c5.4,0,10.6,1.6,10,8.6,2.8,1.4,9.2,1.8,16.8,1.8,10.11,0,13.12-7.45,15.29-7.45.11,0,.21.02.31.05-11.2,16.4-25.6,39.2-32,50.6-3.4,6-5.6,11-5.6,14.2,0,2,1,4,4,4,3.6,0,9-3,15.6-10.6,6-7,9.8-12.8,14-20-1.8,6.6-6.8,14.8-12.6,21.6-7,8-15,14.2-26,14.2-12.8,0-17.8-6.2-17.8-14.4,0-3.8,1.2-7,2-8.6.26-.39.18-.79-.07-.79-.13,0-.32.11-.53.39-1.8,2.8-6,9.2-9.4,13-5.6,6.2-10.4,10-18.2,10-11.4,0-17.2-6-17.2-17.6,0-10.2,5.6-24,16.2-35.4,15.6-17,30.4-23.6,45.2-23.6M140.6,726.44c2.4,0,6-2.2,11.6-8.8,7.2-8.4,20.4-29.6,24-35.4l10-16.6c.8-4.6,0-8-2.8-8-7.6,0-23.4,24-28.8,32.4-4.6,7.4-16.6,26-16.6,33.6,0,1.8,1,2.8,2.6,2.8M246.22,625l-14.97,25.67-7.24-2.63c-1.2-.44-2.45-.66-3.73-.66-4.74,0-7.7,2.87-9.47,4.58-1.78,1.73-2.96,2.87-5.82,2.87-3.7,0-6.36-.11-8.25-.24-.81-1.81-1.84-3.22-2.81-4.28-3.58-3.9-8.87-5.87-15.74-5.87-18.79,0-35.98,8.77-52.54,26.81-11.63,12.52-18.86,28.68-18.86,42.19,0,8.48,2.41,15.25,7.16,20.13,4.83,4.96,11.57,7.47,20.04,7.47,9.29,0,15.84-3.85,21.22-8.81.72.89,1.51,1.72,2.37,2.51,4.92,4.45,11.79,6.7,20.4,6.7,16.24,0,26.91-10.05,33.53-17.61l.04-.05.04-.05c7.19-8.43,12.53-17.71,14.64-25.46l19.98-73.27h0Z"/>
    </g>
    <g>
      <path class="cls-1" d="M226,736.44c-13.36,0-22-7.93-22-20.2,0-10.7,5.65-20.54,14.77-32.96,2.87-3.92,5.12-7.23,6.76-9.91-.98,1.14-2.07,2.52-3.27,4.19l-16.61,23.11,7.74-27.39c3.23-11.42,15.86-23.24,31.41-23.24,2.06,0,3.94.2,5.65.57-2.31-.95-4.37-2.43-6.05-4.38-3.24-3.75-4.67-8.74-3.94-13.71,1.52-10.14,10.54-18.07,20.55-18.07,4.64,0,8.93,1.96,12.09,5.51,3.29,3.7,4.85,8.61,4.28,13.47-1.08,10.3-10.12,18.42-20.57,18.42-1.1,0-2.18-.1-3.23-.3,7.01,2.72,10.23,8.73,10.23,14.7,0,8.7-5.95,19.17-14.87,32.22-6.27,9.07-12.39,18.22-13.23,22.8,2.02-.6,5.92-2.91,11.13-8.91,5.82-6.78,9.46-12.39,13.46-19.24l19.14-32.8-9.99,36.63c-1.9,6.96-6.99,15.76-13.62,23.53-6.52,7.45-15.76,15.95-29.8,15.95Z"/>
      <path d="M261,619.44c7,0,12.2,6.6,11.4,13.4-.8,7.6-7.6,14-15.6,14s-12.4-6.8-11.4-13.6c1.2-8,8.4-13.8,15.6-13.8M244.8,655.04c9,0,14,4.8,14,11.2,0,7.6-6.2,18-14,29.4-9.4,13.6-14.2,21.4-14.2,26.6,0,2,1.2,4.2,4.2,4.2,3.6,0,9.2-3.2,15.8-10.8,6-7,9.8-12.8,14-20-1.8,6.6-6.8,14.8-12.6,21.6-7,8-15,14.2-26,14.2s-17-6.4-17-15.2,4.4-17.2,13.8-30c7.6-10.4,11-16.4,11-20.2,0-1.6-.8-2.6-2.4-2.6-3.8,0-8.6,4.8-13.2,11.2,2.6-9.2,13.4-19.6,26.6-19.6M261,609.44c-12.42,0-23.61,9.8-25.49,22.32-.72,4.87.18,9.76,2.47,13.95-14.71,2.89-26.16,14.72-29.4,26.21l-15.48,54.78,5.98-8.32c.98,13.88,11.55,23.06,26.92,23.06,16.24,0,26.91-10.05,33.53-17.61l.04-.05.04-.05c7.19-8.43,12.53-17.71,14.64-25.46l19.99-73.27-25.57,43.83c.09-.87.14-1.74.14-2.59,0-4.16-1.1-7.9-3.08-11.04,8.85-3.35,15.57-11.5,16.62-21.25.72-6.26-1.29-12.57-5.51-17.32-4.06-4.57-9.83-7.19-15.83-7.19h0Z"/>
    </g>
    <g>
      <path class="cls-1" d="M273.98,736.23c-12.55-.56-20.98-8.83-20.98-20.59,0-7.24,2.81-15.68,8.13-24.4,2.08-3.47,4.23-6.84,6.32-10.11,1.12-1.76,2.38-3.73,3.57-5.66-.5.64-1.02,1.34-1.56,2.09l-16.61,23.11,7.74-27.39c3.23-11.42,15.86-23.24,31.41-23.24,9.61,0,16.3,4.7,17.98,12.28,7.23-7.07,15.08-11.88,24.42-11.88,11.89,0,20.2,7.48,20.2,18.2,0,8.52-4.74,17.05-13.47,29.82-6.27,9.07-12.39,18.22-13.23,22.8,2.02-.6,5.92-2.91,11.13-8.91,5.81-6.78,9.46-12.39,13.46-19.24l19.14-32.8-9.99,36.63c-1.9,6.96-6.99,15.76-13.62,23.53-6.52,7.45-15.76,15.95-29.8,15.95s-22-8.01-22-20.4c0-10.32,5.66-20.23,14.15-31.94,4.49-6.27,7.42-10.69,9.31-13.82-3.48,3.04-8.59,8.34-15.7,17.6-6.07,8.03-13.39,19.12-18.63,28.24-3.75,6.49-5.51,10.51-6.2,12.56l11.02,8.26-16.18-.72Z"/>
      <path d="M292,655.04c9,0,13.4,4.8,13.4,11.2,0,4.4-2.6,10.4-6,15-.38.62-.28.94-.01.94.16,0,.39-.11.61-.34,10-13.2,20.8-26.4,34.4-26.4,8.2,0,15.2,4.4,15.2,13.2,0,7.4-4.8,15.6-12.6,27-9.4,13.6-14.2,21.4-14.2,26.6,0,2,1.2,4.2,4.2,4.2,3.6,0,9.2-3.2,15.8-10.8,6-7,9.8-12.8,14-20-1.8,6.6-6.8,14.8-12.6,21.6-7,8-15,14.2-26,14.2-11.6,0-17-6.6-17-15.4,0-8.2,4.2-16.6,13.2-29,7.6-10.6,13.6-19.8,13.6-23.6,0-1.2-.6-2.2-2.2-2.2-4.4,0-13.2,7.2-25.8,23.6-6.2,8.2-13.6,19.4-19,28.8-5.2,9-8.4,16.4-6.8,17.6-9-.4-16.2-5.8-16.2-15.6,0-6,2.4-13.6,7.4-21.8,7.2-12,15.6-23.4,15.6-27.8,0-1.6-.8-2.6-2.4-2.6-3.8,0-8.6,4.8-13.2,11.2,2.6-9.2,13.4-19.6,26.6-19.6M386.43,625l-26.96,46.2c.08-.85.12-1.71.12-2.56,0-7.19-2.95-13.49-8.31-17.74-4.51-3.57-10.35-5.46-16.89-5.46-8.63,0-16.16,3.63-22.67,8.72-.85-1.22-1.84-2.34-2.97-3.35-2.92-2.63-8.21-5.76-16.76-5.76-17.92,0-32.49,13.67-36.22,26.88l-15.48,54.78,7.71-10.72c.17,14.22,10.71,24.58,25.75,25.25l32.36,1.44-20.88-15.65c.88-1.91,2.27-4.63,4.43-8.37.5-.86,1.01-1.74,1.54-2.64,0,.01,0,.02,0,.04,0,15.19,10.85,25.4,27,25.4s26.91-10.05,33.53-17.61l.04-.05.04-.05c7.19-8.43,12.53-17.71,14.64-25.46l19.99-73.27h0Z"/>
    </g>
    <g>
      <path class="cls-1" d="M361.4,736.44c-15.79,0-26-8.48-26-21.6,0-15.44,12.28-25.03,23.73-25.12.96-1.05,1.97-2.16,3.02-3.33,4.62-5.1,10.38-11.45,16.41-17.17,7.68-7.37,22.79-19.77,37.44-19.77,9.62,0,16.6,6.06,16.6,14.4,0,8.91-8.38,16.12-19.07,16.4l-5.71.15c.5,4.1.87,8.87.57,14.51-.2,4.76-1.26,9.53-3.06,14.04,6.57-5.51,11.88-11.45,13.73-15.41l9.39,3.29c-2.21,9.11-10.4,17.37-16.89,22.69-7.05,5.69-17.12,11.06-25.69,13.71-6.7,2.08-15.39,3.22-24.48,3.22ZM360.27,724.6s.23.04.53.04c.78,0,2.23,0,5.06-6.11,1.64-3.55,2.85-7.85,4.14-12.79l-.32.04c-2.85.39-9.88,7.29-9.88,16.25,0,1.67.34,2.44.46,2.57,0,0,0,0,.01,0ZM371.11,694.82c.48.56.92,1.16,1.31,1.79.43-1.56.9-3.15,1.4-4.76-.89.99-1.79,1.98-2.71,2.97ZM408,663.76c-.12.06-.23.15-.34.26-.67.69-1.36,2.44-1.27,5.27.06,1.62.36,3.68.72,6.07.1.65.2,1.33.3,2.03l1.24-3.72c.08-.24.34-1.17.34-3.02,0-3.89-.58-5.99-.99-6.88Z"/>
      <path d="M416,654.44c6.6,0,11.6,3.8,11.6,9.4,0,6.4-6.6,11.2-14.2,11.4.4-1.2.6-2.8.6-4.6,0-6.8-1.6-12-5.4-12-4.6,0-7.4,4.4-7.2,10.8.2,5.6,2.6,13.6,2,25.2-.4,9.6-4.6,18.4-10.4,24.6-3.4,3.6-6.6,5.2-9.8,6.6-.82.33-.83.65-.27.65.13,0,.28-.02.47-.05,9.4-2.6,17.8-7.8,23.6-12.4,6.2-5,13.8-12.4,16.6-18.4-1.6,6.6-7.4,13.6-15.2,20-6.2,5-15.6,10.2-24,12.8-5.8,1.8-14,3-23,3-10.8,0-21-4.8-21-16.6,0-12.83,10.37-20.13,18.9-20.13.65,0,1.28.04,1.9.13,5.4-5.8,12.8-14.4,20.8-22,10-9.6,22.8-18.4,34-18.4M360.8,729.64c4.4,0,7-3.4,9.6-9,3.6-7.8,5.2-18.4,9-29.8,3.8-11.6,11-22.6,20.6-29,.44-.29.45-.48.19-.48-.1,0-.23.02-.39.08-4.8,2.2-12.6,9-16.8,13.2-7.4,7.2-12.8,14.2-19.4,20.8,1.6.4,4.2,2.4,5.4,5.4-5.8.8-14.2,10.2-14.2,21.2,0,4.6,1.8,7.6,6,7.6M416,644.44c-15.58,0-30.84,11.51-40.91,21.17-6.16,5.85-11.97,12.26-16.64,17.42-.56.61-1.1,1.22-1.64,1.8-13.14,1.28-26.41,12.5-26.41,30,0,15.91,12.46,26.6,31,26.6,9.58,0,18.8-1.23,25.96-3.45,9.26-2.86,19.73-8.45,27.31-14.57l.03-.03.03-.03c10.29-8.44,16.54-16.98,18.58-25.37l-18.78-6.59c-.26.56-.62,1.18-1.08,1.86.08-2.88,0-5.56-.16-8.02h.36c13.42-.36,23.94-9.76,23.94-21.41s-9.29-19.4-21.6-19.4h0Z"/>
    </g>
    <g>
      <path class="cls-1" d="M440.4,736.24c-14.91,0-21.87-5.94-25.09-10.92-3.3-5.11-5.88-14.17.53-28.34,3.98-8.9,11.21-20.68,18.21-32.08l1.88-3.07c6.51-10.5,16.07-24.66,22.25-32.97,6.76-9.01,10.08-12.42,18.21-12.42,1.29,0,3.11.04,5.12.09,2.36.05,5.02.11,7.28.11,2.78,0,4.73-1.86,7.19-4.5,1.88-2.02,4-4.3,7.21-4.3h10.05l-6.06,8.02c-6.85,9.06-16.31,22.76-24.91,35.64,2.21-.68,4.52-1.06,6.92-1.06,12.58,0,20.4,7.74,20.4,20.2,0,10.84-4.62,23.67-12.35,34.34-14.82,20.45-34.47,31.26-56.85,31.26ZM441.39,723.63h0ZM459.71,689.48c-.54.85-1.14,1.79-1.8,2.79-5.07,7.86-15.59,24.18-15.72,31.23,4.04-1.57,13.7-17.31,21.54-30.09,7.06-11.53,10.92-19.17,12.83-23.76-3.2,2.92-8.49,8.64-16.85,19.82Z"/>
      <path d="M503.2,612.84c-12.4,16.4-33.8,48.6-43,63.6-.52.78-.36,1.39.03,1.39.21,0,.49-.18.77-.59,6.2-9,16-21.8,28.2-21.8,9.8,0,15.4,5.4,15.4,15.2,0,9.2-4,21.2-11.4,31.4-14.2,19.6-32.4,29.2-52.8,29.2s-28.6-13.2-20-32.2c4.2-9.4,12.2-22.2,19.8-34.6,6.2-10,15.6-24,22-32.6,6.6-8.8,8.6-10.4,14.2-10.4,2.8,0,8.2.2,12.4.2,8.2,0,11.6-8.8,14.4-8.8M441.6,728.64c5.8,0,11.8-8.8,26.4-32.6,9.8-16,15.2-27.4,15.2-31.6,0-1.8-.8-2.8-2.6-2.8-3.8,0-11.4,6.8-25,25-5.6,8.8-18.4,27.6-18.4,37,0,2.4.8,5,4.4,5M523.29,602.84h-20.1c-5.39,0-8.69,3.55-10.87,5.89-1.14,1.23-2.7,2.91-3.53,2.91-2.2,0-4.84-.06-7.17-.11-2.07-.05-3.86-.09-5.23-.09-10.85,0-15.5,5.47-22.2,14.4-6.38,8.57-15.83,22.58-22.5,33.33v.02s-.03.02-.03.02l-1.88,3.07c-7.08,11.53-14.4,23.46-18.52,32.68-5.71,12.61-5.77,24.37-.16,33.06,3.89,6.03,12.13,13.21,29.29,13.21,24.04,0,45.1-11.53,60.9-33.33,8.33-11.48,13.3-25.41,13.3-37.27,0-14.26-8.65-23.82-22.31-25.06,6.78-9.99,13.61-19.73,18.89-26.71l12.12-16.03h0Z"/>
    </g>
    <g>
      <path class="cls-1" d="M562.8,736.44c-11.34,0-19.27-5.48-21.42-14.34-7.7,7.93-16.51,13.74-27.58,13.74s-19.4-7.57-19.4-18c0-7.22,3.11-14.48,11.46-26.81l.48-.72c3.23-4.8,7.4-11,10.43-16.04-.78.95-1.61,2.03-2.51,3.29l-16.61,23.11,7.74-27.39c3.23-11.42,15.86-23.24,31.41-23.24,11.18,0,18.4,6.36,18.4,16.2v.12c-.02.57-.05,1.15-.11,1.74l4.28-5.82c5.61-7.63,13.22-11.84,21.43-11.84,11.47,0,18.6,6.36,18.6,16.6,0,8.5-5.46,18.41-11.36,27.85-.89,1.43-1.78,2.84-2.65,4.22-5.28,8.38-11.21,17.81-11.92,22.15,1.47-.49,4.82-2.29,10.55-8.9,5.82-6.79,9.46-12.4,13.46-19.24l19.13-32.8-9.99,36.63c-2.05,7.53-7.31,16.6-13.72,23.65-8.38,9.48-16.73,15.84-30.1,15.84ZM573.42,722.29h0ZM550.19,683.43c-2.58,5.32-6.16,11.23-10.71,17.69-2.63,3.75-7.02,10-10.08,14.98,4.71-4.02,11.12-10.69,16.9-18.93,4.16-5.79,10.26-14.89,15.55-23.94l-11.66,10.2Z"/>
      <path d="M536.8,655.04c9,0,13.4,4.8,13.4,11.2-.2,8.2-6.2,19.8-14.8,32-8,11.4-14.4,20.8-14.4,24.6,0,1.6.8,2.4,2.4,2.4,4.8,0,17.6-11.8,27-25.2,4.6-6.4,11.4-16.6,17-26.4,1.4-2.4,2.8-5.4,2.8-7.8,0-1.6-1-2.4-2.6-2.4-1.2,0-2.6.4-4.2,1.8,5-6.8,11.4-9.8,17.4-9.8,9.2,0,13.6,4.6,13.6,11.6s-4.6,15.6-10.6,25.2c-8,12.8-15.4,23.8-15.4,29.8,0,2.4,1.2,4.4,4.2,4.4,3.6,0,8.6-3.2,15.2-10.8,6-7,9.8-12.8,14-20-1.8,6.6-6.6,15-12.6,21.6-7.6,8.6-14.6,14.2-26.4,14.2s-17-6.2-17-14.4c0-3.4,1.2-7.8,3.6-11.6.26-.39.27-.7.07-.7-.1,0-.26.09-.47.3-10,13.4-20.4,25.8-35.2,25.8-8.8,0-14.4-5.6-14.4-13,0-5.8,2.6-12.2,10.6-24,7.8-11.6,15.8-23.4,15.8-27.8,0-1.6-.8-2.6-2.4-2.6-3.8,0-8.6,4.8-13.2,11.2,2.6-9.2,13.4-19.6,26.6-19.6M631.42,625.01l-27.53,47.18c.32-1.74.5-3.46.5-5.15,0-6.45-2.3-11.94-6.66-15.86-4.23-3.81-9.93-5.74-16.94-5.74-8.52,0-16.72,3.91-22.98,10.84-1.08-2.05-2.51-3.9-4.26-5.47-2.92-2.63-8.21-5.76-16.76-5.76-17.92,0-32.49,13.67-36.22,26.88l-15.48,54.78,4.45-6.19c.6,5.4,3.01,10.27,6.94,13.93,4.44,4.13,10.59,6.4,17.31,6.4,10.37,0,18.89-4.39,25.93-10.27,4.15,6.31,11.7,10.87,23.07,10.87,16.1,0,25.79-8.42,33.85-17.52,6.89-7.59,12.56-17.41,14.8-25.64l19.98-73.27h0Z"/>
    </g>
    <g>
      <path class="cls-1" d="M613.59,736.37c-14.46,0-23.8-8.14-23.8-20.73,0-7.24,2.81-15.68,8.13-24.4,2.08-3.47,4.23-6.84,6.32-10.11,1.12-1.76,2.38-3.73,3.57-5.66-.5.64-1.02,1.34-1.56,2.09l-16.61,23.11,7.74-27.39c3.23-11.42,15.86-23.24,31.41-23.24,9.17,0,15.68,4.28,17.72,11.25,6.25-6.6,13.07-11.25,21.08-11.25,11.18,0,18.4,6.28,18.4,16,0,15.79-14.12,26.8-26.8,26.8-6.32,0-11.37-1.53-15-4.56l-2.27-1.9c-.41.53-.8,1.03-1.17,1.51-15.82,21.09-21.61,33.66-21.76,38.4,0,.19.01.34.03.46l18.89,7.77-20.71,1.7c-1.23.1-2.44.15-3.61.15Z"/>
      <path d="M667.59,655.04c8,0,13.4,3.8,13.4,11,0,13.2-12.2,21.8-21.8,21.8-5.6,0-9.4-1.4-11.8-3.4,3.4,0,13.6-14.4,13.6-20.6,0-1.6-1-1.8-1.8-1.8-4.2,0-10.2,7-22.4,22.8-9.6,12.8-22.6,32-22.8,41.4,0,2.4.8,4.2,2.8,5-1.11.09-2.18.13-3.2.13-12.64,0-18.8-6.67-18.8-15.73,0-6,2.4-13.6,7.4-21.8,7.2-12,15.6-23.4,15.6-27.8,0-1.6-.8-2.6-2.4-2.6-3.8,0-8.6,4.8-13.2,11.2,2.6-9.2,13.4-19.6,26.6-19.6,9,0,13.4,4.8,13.4,11.2,0,4.4-2.6,10.4-6,15-.51.63-.37,1.03-.05,1.03.19,0,.43-.13.65-.43,10-14,19.4-26.8,30.8-26.8M667.59,645.04c-7.58,0-14.02,3.2-19.82,8.12-.67-.84-1.41-1.63-2.22-2.35-2.92-2.63-8.21-5.76-16.76-5.76-17.92,0-32.49,13.67-36.22,26.88l-15.48,54.78,7.71-10.72c.16,12.7,9.08,25.39,28.79,25.39,1.3,0,2.65-.06,4.01-.17l42.44-3.44-35.38-14.15c1.65-4.76,6.64-14.45,18.16-30.12,4.32,2.89,9.81,4.35,16.37,4.35,15.04,0,31.8-13.06,31.8-31.8,0-12.56-9.4-21-23.4-21h0Z"/>
    </g>
    <g>
      <path class="cls-1" d="M664.99,778.64c-25.81,0-28.6-11.47-28.6-16.4,0-9.93,8.92-16.6,22.2-16.6,4.97,0,9.54.88,13.57,2.6l12.03,5.15c2.26-3.03,4.76-6.76,7.52-11.34,1.67-2.77,3.79-6.51,6.06-10.63-4.8,2.75-10.07,4.41-15.98,4.41-11.24,0-19.4-7.57-19.4-18,0-7.22,3.11-14.48,11.46-26.81l.48-.72c3.23-4.8,7.4-11,10.43-16.04-.78.95-1.61,2.03-2.51,3.29l-16.62,23.12,7.75-27.4c3.23-11.42,15.86-23.24,31.41-23.24,11.18,0,18.4,6.36,18.4,16.2v.12c-.02.57-.05,1.14-.09,1.72l4.27-5.8c5.61-7.63,13.22-11.84,21.43-11.84,11.47,0,18.6,6.36,18.6,16.6,0,8.07-5.02,17.33-11.08,27.72-2.1,3.62-4.11,7.09-6.02,10.41-9.16,15.88-16.4,28.43-23.68,38.25-17.1,23.04-38.4,35.22-61.62,35.22ZM671.41,757.69c-3.29.82-5.01,4.57-5.01,6.35,0,2.31.42,2.4,2.2,2.4,1.92,0,6.61-1.37,14.57-11.69l-11.76,2.94ZM718.36,683.29c-2.49,5.04-6.05,10.82-10.86,17.79-2.65,3.77-7.05,10.04-10.11,15.02,4.71-4.02,11.12-10.69,16.9-18.93,4.16-5.78,10.25-14.88,15.55-23.94l-11.49,10.05Z"/>
      <path d="M704.79,655.04c9,0,13.4,4.8,13.4,11.2-.2,8.2-5,17.8-14.8,32-8,11.4-14.4,20.8-14.4,24.6,0,1.6.8,2.4,2.4,2.4,4.8,0,17.6-11.8,27-25.2,4.6-6.4,11.4-16.6,17-26.4,1.4-2.4,2.8-5.4,2.8-7.8,0-1.6-1-2.4-2.6-2.4-1.2,0-2.6.4-4.2,1.8,5-6.8,11.4-9.8,17.4-9.8,9.2,0,13.6,4.6,13.6,11.6s-4.8,15.6-10.4,25.2c-12.2,21-20.8,36.6-29.4,48.2-13.8,18.6-32.8,33.2-57.6,33.2-12.6,0-23.6-3.2-23.6-11.4,0-7,6.8-11.6,17.2-11.6,5,0,8.8,1,11.6,2.2-5.6,1.4-8.8,7.2-8.8,11.2,0,5,2.6,7.4,7.2,7.4,3.6,0,12.2-1.6,27.4-26.8,5.8-9.6,16.8-30.6,21.4-39.2l-.4-.4c-10,13.4-20.4,25.8-35.2,25.8-8.8,0-14.4-5.6-14.4-13,0-5.8,2.6-12.2,10.6-24,7.8-11.6,15.8-23.4,15.8-27.8,0-1.6-.8-2.6-2.4-2.6-3.8,0-8.6,4.8-13.2,11.2,2.6-9.2,13.4-19.6,26.6-19.6M704.79,645.04c-17.92,0-32.49,13.67-36.22,26.88l-15.49,54.8,4.46-6.21c.6,5.4,3.01,10.27,6.94,13.93,4.44,4.13,10.59,6.4,17.31,6.4,1.72,0,3.4-.12,5.02-.35-1.55,2.54-3,4.77-4.35,6.73l-8.33-3.57c-4.66-2-9.89-3.01-15.54-3.01-16.01,0-27.2,8.88-27.2,21.6,0,5.02,2.42,21.4,33.6,21.4,24.86,0,47.55-12.88,65.63-37.24,7.45-10.06,14.76-22.71,24-38.73,1.91-3.31,3.91-6.78,6.02-10.4,6.43-11.01,11.75-20.9,11.75-30.22,0-6.45-2.3-11.94-6.66-15.86-4.23-3.81-9.93-5.74-16.94-5.74-8.52,0-16.72,3.91-22.98,10.84-1.08-2.05-2.51-3.9-4.26-5.47-2.92-2.63-8.21-5.76-16.76-5.76h0ZM689.66,715.5h0s0,0,0,0h0Z"/>
    </g>
  </g>
  <g>
    <g>
      <path class="cls-1" d="M805.03,613.43c-7.58,0-12.87-4.58-13.17-11.4-.12-3.15.64-6.28,2.39-9.88,1.13-2.32,2.97-5.36,4.78-8.2-1.07-.64-1.67-1.49-1.94-1.97-.97-1.71-.92-3.77.13-5.52,1.72-2.86,4.91-2.86,6.44-2.86h2.33c1.12-1.62,2.34-3.34,3.2-4.5,2.77-3.9,5.01-6.51,10.13-6.51.57,0,1.36.02,2.23.04.95.02,2,.05,2.94.05.26-.15.77-.7,1.08-1.03.96-1.03,2.57-2.76,5.19-2.76h5.28l.69-1.18-.32,1.18h4.72l-6.45,8.11c-.23.29-.48.61-.74.96l-7.2,26.4c-.95,3.47-3.32,7.66-6.35,11.22-3.2,3.68-7.8,7.86-15.33,7.86Z"/>
      <path d="M830.75,563.89c-3.01,3.78-8.77,12.3-10.23,14.71h3.27c.95,0,1.2.26,1.12.69-.09.43-.43.52-2.06.52h-3.1c-4.82,6.79-8.94,13.76-11.27,18.32-.95,1.89-1.63,3.87-1.63,5.59,0,.69.17,2.58,2.24,2.58,1.55,0,3.96-1.38,6.79-4.64,2.58-3.01,4.21-5.5,6.02-8.6-.77,2.84-2.84,6.36-5.33,9.29-3.44,3.96-6.79,6.11-11.52,6.11-5.07,0-8-2.67-8.17-6.62-.09-2.32.52-4.64,1.89-7.48,1.63-3.35,5.25-9.03,9.03-14.53h-5.42c-.95,0-1.12-.34-.86-.77.26-.43,1.29-.43,2.15-.43h4.99c1.29-1.98,3.35-4.9,4.56-6.54,2.75-3.87,3.7-4.47,6.11-4.47,1.2,0,3.44.09,5.25.09,3.53,0,4.99-3.78,6.19-3.78M851.54,522.38l-18.38,31.51h-2.41c-4.16,0-6.85,2.3-8.28,3.76-.27,0-.55-.01-.81-.02-.92-.02-1.75-.04-2.35-.04-7.43,0-10.97,4.06-14.21,8.61-.49.67-1.1,1.51-1.73,2.4-2.11.01-7.42.24-10.44,5.28-1.96,3.27-2.03,7.32-.19,10.56.01.03.03.05.04.08-1.17,1.94-2.24,3.82-3.02,5.43-2.13,4.38-3.04,8.26-2.9,12.23v.03s0,.03,0,.03c.42,9.53,7.88,16.19,18.16,16.19,9.65,0,15.51-5.45,19.07-9.54l.03-.04.03-.04c3.54-4.15,6.22-8.94,7.37-13.15l6.94-25.44s.06-.08.09-.12l12.9-16.22h-8.54l8.6-31.51h0Z"/>
    </g>
    <g>
      <path class="cls-1" d="M827.74,613.35c-8.8,0-14.72-5.64-14.72-14.03,0-3.08.82-11.09,8.46-18.96,6.48-6.66,14.02-10.03,22.42-10.03,7.15,0,12.14,5.06,12.14,12.31,0,5.32-1.63,10.49-4.98,15.82-7.83,12.31-17,14.89-23.32,14.89Z"/>
      <path d="M843.9,575.32c4.82,0,7.14,3.35,7.14,7.31,0,3.53-.86,7.83-4.21,13.16-5.85,9.2-12.64,12.56-19.09,12.56-5.33,0-9.72-2.84-9.72-9.03,0-3.7,1.46-9.72,7.05-15.48,6.11-6.28,12.56-8.51,18.83-8.51M828.77,607.31c2.58,0,6.62-6.71,10.41-13.33,3.7-6.54,7.05-14.02,7.05-16.34,0-.77-.43-1.2-1.12-1.2-3.53,0-9.03,9.03-12.12,14.71-2.41,4.39-5.68,11.44-5.68,14.45,0,1.2.6,1.72,1.46,1.72M843.9,565.32c-9.81,0-18.56,3.88-26,11.54-8.92,9.19-9.88,18.76-9.88,22.45,0,11.2,8.11,19.03,19.72,19.03,7.57,0,18.5-2.98,27.53-17.19,3.89-6.19,5.77-12.23,5.77-18.52,0-10.03-7.21-17.31-17.14-17.31h0Z"/>
    </g>
    <g>
      <path class="cls-1" d="M875.9,613.43c-7.58,0-12.87-4.58-13.17-11.4-.12-3.15.64-6.28,2.39-9.88,1.13-2.32,2.97-5.36,4.78-8.2-1.07-.64-1.67-1.49-1.94-1.97-.97-1.71-.92-3.77.13-5.52,1.72-2.86,4.91-2.86,6.44-2.86h2.33c1.12-1.62,2.34-3.34,3.2-4.5,2.77-3.9,5.01-6.51,10.13-6.51.57,0,1.36.02,2.23.04.95.02,2,.05,2.94.05.26-.15.77-.7,1.08-1.03.96-1.03,2.57-2.76,5.19-2.76h5.28l.69-1.18-.32,1.18h4.72l-6.45,8.11c-.23.29-.48.61-.74.96l-7.2,26.4c-.95,3.47-3.32,7.66-6.35,11.22-3.2,3.68-7.8,7.86-15.33,7.86Z"/>
      <path d="M901.61,563.89c-3.01,3.78-8.77,12.3-10.23,14.71h3.27c.95,0,1.2.26,1.12.69-.09.43-.43.52-2.06.52h-3.1c-4.82,6.79-8.94,13.76-11.27,18.32-.95,1.89-1.63,3.87-1.63,5.59,0,.69.17,2.58,2.24,2.58,1.55,0,3.96-1.38,6.79-4.64,2.58-3.01,4.21-5.5,6.02-8.6-.77,2.84-2.84,6.36-5.33,9.29-3.44,3.96-6.79,6.11-11.52,6.11-5.07,0-8-2.67-8.17-6.62-.09-2.32.52-4.64,1.89-7.48,1.63-3.35,5.25-9.03,9.03-14.53h-5.42c-.95,0-1.12-.34-.86-.77.26-.43,1.29-.43,2.15-.43h4.99c1.29-1.98,3.35-4.9,4.56-6.54,2.75-3.87,3.7-4.47,6.11-4.47,1.2,0,3.44.09,5.25.09,3.53,0,4.99-3.78,6.19-3.78M922.4,522.38l-18.38,31.51h-2.41c-4.16,0-6.85,2.3-8.28,3.76-.27,0-.55-.01-.81-.02-.92-.02-1.75-.04-2.35-.04-7.43,0-10.97,4.06-14.21,8.61-.49.67-1.1,1.51-1.73,2.4-2.11.01-7.42.24-10.44,5.28-1.96,3.27-2.03,7.32-.19,10.56.01.03.03.05.04.08-1.17,1.94-2.24,3.82-3.02,5.43-2.13,4.38-3.04,8.26-2.9,12.23v.03s0,.03,0,.03c.42,9.53,7.88,16.19,18.16,16.19,9.65,0,15.51-5.45,19.07-9.54l.03-.04.03-.04c3.54-4.15,6.22-8.94,7.37-13.15l6.94-25.44s.06-.08.09-.12l12.9-16.22h-8.54l8.6-31.51h0Z"/>
    </g>
    <g>
      <path class="cls-1" d="M896.66,613.34c-6.91-.31-11.74-5.12-11.74-11.7,0-3.45,1.22-7.31,3.73-11.81,4.54-8.25,10.53-17.64,17.33-27.13,2.82-3.96,5.05-6.56,10.17-6.56.57,0,1.38.02,2.27.04.97.02,2.05.05,2.99.05.26-.15.77-.69,1.08-1.03.96-1.03,2.57-2.76,5.19-2.76h10.05l-6.06,8.02c-2.14,2.83-4.82,6.51-7.54,10.36,5.47.51,9.46,4.16,10.1,9.19l13.01-22.3-10,36.65c-.94,3.43-3.28,7.52-6.44,11.22-2.98,3.4-7.72,7.86-14.98,7.86-1.76,0-3.39-.27-4.84-.77l1.87,1.4-16.17-.72ZM905.41,608.5c-.86-1.27-1.46-2.76-1.74-4.42-.51.9-.89,1.64-1.17,2.23l2.91,2.19Z"/>
      <path d="M927.67,557.44c-5.33,7.05-16.08,22.19-19.95,29.41-.11.23-.11.46,0,.46.06,0,.14-.06.26-.2,4.3-5.68,8.94-11.35,14.79-11.35,3.53,0,6.54,1.89,6.54,5.68,0,3.18-2.06,6.71-5.42,11.61-4.04,5.85-6.11,9.2-6.11,11.44,0,.86.52,1.81,1.81,1.81,1.55,0,3.96-1.38,6.79-4.64,2.58-3.01,4.21-5.5,6.02-8.6-.77,2.84-2.92,6.36-5.42,9.29-3.01,3.44-6.45,6.11-11.18,6.11-4.99,0-7.31-2.84-7.31-6.62,0-3.53,1.81-7.14,5.68-12.47,3.27-4.56,5.85-8.51,5.85-10.15,0-.52-.26-.95-.95-.95-1.89,0-5.68,3.1-11.09,10.15-2.67,3.53-5.85,8.34-8.17,12.38-2.24,3.87-3.61,7.05-2.92,7.57-3.87-.17-6.97-2.49-6.97-6.71,0-2.58,1.03-5.68,3.1-9.37,4.73-8.6,10.75-17.89,17.03-26.66,2.75-3.87,3.7-4.47,6.11-4.47,1.2,0,3.53.09,5.33.09,3.53,0,4.99-3.78,6.19-3.78M962.04,522.37l-14.62,25.06h-19.76c-4.16,0-6.85,2.3-8.28,3.76-.29,0-.58-.01-.86-.02-.93-.02-1.78-.04-2.38-.04-7.47,0-11,4.1-14.26,8.68-6.88,9.62-12.98,19.17-17.63,27.61-2.93,5.25-4.35,9.9-4.35,14.22,0,9.25,6.95,16.27,16.52,16.7l32.35,1.44-4.24-3.18c5.23-2.29,8.57-6.1,9.96-7.69l.04-.05.04-.05c1.71-2.01,5.86-7.3,7.46-13.15l20-73.3h0ZM932.06,568.31c1.3-1.79,2.52-3.43,3.58-4.84l10.63-14.06-12,20.57c-.68-.61-1.42-1.17-2.22-1.66h0Z"/>
    </g>
    <g>
      <path class="cls-1" d="M939.54,613.35c-9.5,0-15.41-5.31-15.41-13.86,0-5.88,3.38-13.41,8.42-18.74,4.42-4.67,9.18-7.26,13.26-8.69l-1.66-8.3,4.28,7.51c3.17-.81,5.68-.94,6.92-.94,7.15,0,12.14,4.32,12.14,10.5,0,4.88-2.8,9.03-7.25,11.54.3.94.46,1.92.46,2.91,0,4.42-1.82,8.47-5.27,11.72-4.32,4.09-9.97,6.35-15.9,6.35ZM947.7,594.76c-1.22,2.21-2.08,4.24-2.64,5.83.64-.47,1.33-1.06,2.02-1.78,1.27-1.32,2.23-2.82,2.73-3.86h-.04c-.71,0-1.4-.06-2.06-.18Z"/>
      <path d="M955.36,575.32c4.3,0,7.14,2.15,7.14,5.5,0,5.68-6.28,9.12-12.73,9.12-1.72,0-3.35-.69-3.96-1.63-4.13,6.02-6.54,12.56-6.54,15.39,0,2.32,1.12,3.35,3.18,3.35,1.81,0,5.33-1.72,8.26-4.82,1.89-1.98,4.99-6.19,4.39-9.2.34.6.6,1.38.6,2.24,0,2.24-.69,5.25-3.7,8.08-3.27,3.1-7.65,4.99-12.47,4.99-6.79,0-10.41-3.18-10.41-8.86,0-4.39,2.67-10.66,7.05-15.31,6.19-6.54,13.93-8.86,19.18-8.86M948.13,588.84c3.84,0,8.78-7.57,8.78-11.19,0-.95-.26-1.29-.86-1.29-1.89,0-4.39,3.7-6.79,6.88-.86,1.2-2.24,3.18-3.1,4.56.34.6,1.03.95,1.72,1.03.08,0,.17.01.25.01M933.2,534.47l6.91,34.58c-4.11,2.03-7.94,4.83-11.19,8.26-5.95,6.3-9.79,15.01-9.79,22.19,0,11.28,8.2,18.86,20.41,18.86,7.21,0,14.08-2.74,19.35-7.73,4.46-4.2,6.82-9.51,6.82-15.34,0-.19,0-.37-.01-.56,4.24-3.43,6.8-8.31,6.8-13.89,0-8.98-7.21-15.5-17.14-15.5-1.45,0-2.92.11-4.38.31l-17.78-31.17h0Z"/>
    </g>
  </g>
  <text/>
  <g>
    <g>
      <path class="cls-1" d="M895.67,811.64c-18.96-2.74-30.28-18.24-30.28-41.45,0-17.3,5.6-35.63,17.11-55.97-6.1,7.26-12.78,15.73-19.78,24.62-18.71,23.75-39.92,50.66-57.62,63.38-2.95,2.21-7.78,4.76-11.74,4.76-3.28,0-4.93-1.74-5.62-2.77l-.07-.1-.06-.1c-2.98-4.96,1.84-8.37,3.66-9.65.48-.34,1.03-.72,1.63-1.17,1.8-1.35,2.32-2.17,2.43-2.38,1.27-5.74,2.04-13.14,2.92-21.68,1.4-13.55,3.15-30.41,7.81-47.98,2.17-7.71,4.49-14.85,7.07-21.63-1.85,2.77-3.68,5.54-5.48,8.25-3.68,5.56-7.15,10.81-10.4,15.5-12.04,17.06-28.69,34.31-42.07,48.18l-.72.74c-19.54,20.21-43.06,31.75-74.02,36.31-11.82,1.74-26.39,2.78-38.97,2.78-12.04,0-21.77-.92-28.93-2.74-13.18-3.34-15.95-9.67-15.95-14.4,0-12.31,10.99-16.9,17.92-16.9,1.17,0,2.16.14,3,.42l9.05,3.02s-7.67,5.76-7.69,5.77c.12.15.24.3.35.44,1.35,1.68,3.32,4.12,3.89,7.55,1.22.44,4.35,1.21,11.37,1.21,15.65,0,38.53-3.88,46.19-7.84,26.87-13.88,69.25-58.13,81.6-71.36,5.18-5.58,45.72-48.89,73.86-68.79-4.95-.87-9.79-1.86-14.54-2.83-13.61-2.78-27.68-5.66-44.21-5.66-5.08,0-17.72.79-25.27,8.09-4.23,4.01-6.73,10.98-6.73,18.66,0,6.74,2.57,11.71,6.71,12.97l.12.04c.68.23,1.26.34,1.71.34.14,0,.26,0,.38-.03l9.02-1.5-3.6,8.4c-3.12,7.27-11.59,10.53-18.6,10.53-13.93,0-22.25-7.94-22.25-21.25s11.04-25.24,23.35-36.66c15.66-14.31,35.42-22.84,52.9-22.84,19.95,0,40.22,5.7,56.51,10.27,9.98,2.81,18.6,5.23,23.49,5.23,5.29,0,5.82-1.06,6.78-2.99l3.62-7.24,4.85,6.47c1.33,1.77,2,3.79,2,6,0,5.83-5.11,11.58-11.93,13.5-5.86,2.39-14.98,14.07-25.47,55.72-1.88,7.5-5.85,22.02-12.14,38.56,2.29-2.93,4.56-5.86,6.81-8.77,8.2-10.58,16.67-21.51,24.96-31.04,31.69-36.18,53.46-59.17,88.63-73.6,10.92-4.42,28.7-9.12,45.9-9.12,10.86,0,19.92,3.28,24.85,8.99,2.89,3.35,4.17,7.35,3.59,11.24l-.04.25c-.71,3.55-2.69,6.38-5.42,7.74l-5.82,2.91-1.31-6.37c-1.2-5.84-6.95-11.76-15.6-11.76-20.42,0-48.98,29.66-80.43,83.52-21.14,36.24-32.32,63.73-32.32,79.48,0,3.97,1.35,6.73,2.69,7.71l16.35,11.89-20-2.9Z"/>
      <path d="M795.13,620.94c32,0,66,15.5,80,15.5,8,0,9.75-2.75,11.25-5.75.75,1,1,2,1,3,0,3.5-3.75,7.5-8.5,8.75-11.25,4.25-20.5,26.5-28.75,59.25-5,20-14.25,48.25-27.75,72.25,19.25-21,37.75-48,56-69,30-34.25,52-58,86.75-72.25,11.75-4.75,28.75-8.75,44-8.75,16.25,0,24.5,7.75,23.5,14.5-.5,2.5-1.75,3.75-2.75,4.25-1.75-8.5-9.75-15.75-20.5-15.75-29.25,0-63,48.75-84.75,86-19.25,33-33,63.25-33,82,0,5.5,2,9.75,4.75,11.75-19-2.75-26-19-26-36.5,0-14,3.75-31.75,17.75-55.75,12-19.5,30-45.75,50.75-62,1.01-.84,1.23-1.57.64-1.57-.28,0-.75.17-1.39.57-21,15.75-31.25,27-56,55.5-23,26.5-55.25,73.5-80,91.25-3,2.25-6.7,3.8-8.79,3.8-.7,0-1.21-.17-1.46-.55-.75-1.25,1-2,4-4.25,2-1.5,3.75-3.25,4.25-5,3.5-15.5,3.25-41.5,10.75-69.75,8-28.5,17.75-47,31-66,.46-.62.45-1.05.14-1.05-.19,0-.5.16-.89.55-15,12.5-34,44.25-48,64.5-12,17-28.52,34.04-42.27,48.29-21.75,22.5-46.13,31.15-71.15,34.84-9.91,1.46-24.42,2.73-38.25,2.73-20.7,0-39.88-2.84-39.88-12.13s9.01-11.9,12.92-11.9c.62,0,1.11.06,1.42.16-7,5.25,2.1,7.26,2.35,13.76.09,3.2,6.92,4.49,16.21,4.49,16.14,0,39.74-3.88,48.48-8.4,25.87-13.37,65.46-53.64,82.96-72.39,16.25-17.5,61.96-64.44,84.71-75.19-24.5-2.5-45-10.5-73.25-10.5-8.75,0-21,2-28.75,9.5-5,4.75-8.25,12.75-8.25,22.25s4.5,16,10.25,17.75c1.1.37,2.2.6,3.29.6.4,0,.8-.03,1.21-.1-2.25,5.25-9,7.5-14,7.5-9.5,0-17.25-4.25-17.25-16.25s11.25-23.25,21.75-33c14.5-13.25,33.25-21.5,49.5-21.5M795.13,610.94c-18.69,0-39.72,9.02-56.25,24.12l-.03.03-.03.03c-10.53,9.78-24.95,23.16-24.95,40.33,0,10.91,4.74,17.1,8.72,20.36,4.77,3.91,11,5.89,18.53,5.89,8.65,0,19.18-4.19,23.19-13.56l7.2-16.81-17.58,2.93s-.09-.03-.15-.05l-.12-.04-.13-.04c-1.27-.39-3.16-2.89-3.16-8.18,0-6.34,1.92-11.94,5.14-15l.03-.03.03-.03c4.33-4.19,12.47-6.69,21.8-6.69,16.01,0,29.22,2.7,43.2,5.56,1.19.24,2.39.49,3.59.73-27.59,21.98-60.88,57.54-65.58,62.6-12.19,13.06-54.07,56.8-80.22,70.31-6.35,3.28-27.85,7.28-43.89,7.28-3.51,0-5.87-.2-7.38-.42-.39-1-.84-1.9-1.32-2.72l11.41-8.56-18.11-6.04c-1.37-.46-2.87-.68-4.59-.68-4.53,0-9.54,1.5-13.4,4.02-6.15,4.01-9.53,10.36-9.53,17.89,0,5.32,2.56,14.89,19.72,19.24,7.56,1.92,17.71,2.89,30.16,2.89s27.65-1.06,39.7-2.83c32.11-4.73,56.54-16.74,76.88-37.78l.72-.75c12.64-13.09,28.17-29.19,40.14-45.41-3.08,14.37-4.48,27.86-5.65,39.09-.81,7.79-1.51,14.61-2.58,19.92-.19.17-.45.39-.8.65-.56.42-1.06.77-1.51,1.09-1.35.95-2.63,1.86-3.81,3.21-3.28,3.75-3.78,8.89-1.25,13.1l.12.2.13.2c2.12,3.18,5.68,5,9.78,5,5.16,0,10.96-2.95,14.7-5.73,17.36-12.48,37.56-37.64,55.74-60.7-2.28,8.45-3.4,16.63-3.4,24.63,0,25.92,12.92,43.26,34.57,46.4l40,5.79-32.51-23.65c-.26-.38-.81-1.63-.81-3.79,0-10.37,5.49-32.13,31.64-76.96,30.07-51.5,57.81-81.04,76.11-81.04,5.98,0,9.91,3.91,10.71,7.77l2.62,12.75,11.64-5.82c4.12-2.06,7.07-6.16,8.08-11.23l.05-.25.04-.25c.79-5.35-.9-10.77-4.75-15.24-5.97-6.92-16.14-10.73-28.64-10.73-17.92,0-36.41,4.9-47.75,9.48-36.14,14.82-59.31,39.29-90.52,74.93-4.68,5.39-9.4,11.19-14.09,17.11,1.33-4.61,2.35-8.48,3.06-11.34,4.17-16.54,8.41-29.5,12.61-38.51,4.97-10.65,8.61-13.16,9.73-13.7,8.72-2.62,15.2-10.33,15.2-18.21,0-3.27-1.04-6.38-3-9l-9.71-12.94-7.24,14.47s-.03.05-.04.08c-.45.07-1.18.14-2.27.14-4.2,0-12.91-2.45-22.14-5.04-16.58-4.66-37.22-10.46-57.86-10.46h0Z"/>
    </g>
    <g>
      <path class="cls-1" d="M916.38,851.19c-21.92,0-34.5-7.02-34.5-19.25s10.65-19.5,26.5-19.5c6.04,0,11.59,1.06,16.47,3.15l13.64,5.85-14.4,3.6c-4.47,1.12-7.21,6.08-7.21,9.15,0,3.66,1.18,4.25,4,4.25,7.24,0,17.88-11.04,29.97-31.08,2.65-4.38,6.17-10.69,9.86-17.45-6.85,4.81-14.46,7.78-23.33,7.78-13.33,0-23-8.94-23-21.25,0-8.74,3.82-17.63,14.11-32.81l.61-.91c5.94-8.83,14.37-21.37,17.26-27.81-2.03,1.49-5.13,4.47-9.42,10.44l-16.61,23.11,7.74-27.39c3.82-13.53,19.46-28.14,38.06-28.14,13.21,0,21.75,7.46,21.75,19v.12c-.06,2.27-.33,4.58-.86,7l8.34-11.34c6.78-9.21,15.93-14.29,25.78-14.29,13.57,0,22,7.47,22,19.5,0,9.77-6.2,21.19-13.68,34.02-2.64,4.54-5.15,8.89-7.54,13.04-11.43,19.81-20.45,35.45-29.51,47.67-21.12,28.47-47.41,43.52-76.02,43.52ZM982.09,732.46c-3.09,6.29-7.54,13.54-13.6,22.32-4.72,6.72-12.65,18.03-15.79,24.29,5.78-3.78,16.6-13.89,26.33-27.75,5.6-7.8,14.04-20.42,21-32.61.81-1.39,1.39-2.57,1.81-3.54l-19.76,17.29Z"/>
      <path d="M966.13,697.94c11.25,0,16.75,6,16.75,14-.25,10.25-6.25,22.25-18.5,40-10,14.25-18,26-18,30.75,0,2,1,3,3,3,6,0,22-14.75,33.75-31.5,5.75-8,14.25-20.75,21.25-33,1.75-3,3.5-6.75,3.5-9.75,0-2-1.25-3-3.25-3-1.5,0-3.25.5-5.25,2.25,6.25-8.5,14.25-12.25,21.75-12.25,11.5,0,17,5.75,17,14.5s-6,19.5-13,31.5c-15.25,26.25-26,45.75-36.75,60.25-17.25,23.25-41,41.5-72,41.5-15.75,0-29.5-4-29.5-14.25,0-8.75,8.5-14.5,21.5-14.5,6.25,0,11,1.25,14.5,2.75-7,1.75-11,9-11,14,0,6.25,3.25,9.25,9,9.25,4.5,0,15.25-2,34.25-33.5,7.25-12,21-38.25,26.75-49l-.5-.5c-12.5,16.75-25.5,32.25-44,32.25-11,0-18-7-18-16.25,0-7.25,3.25-15.25,13.25-30,9.75-14.5,19.75-29.25,19.75-34.75,0-2-1-3.25-3-3.25-4.75,0-10.75,6-16.5,14,3.25-11.5,16.75-24.5,33.25-24.5M966.13,687.94c-21.21,0-38.46,16.16-42.87,31.78l-15.48,54.78,1.91-2.65c-.2,1.54-.3,3.06-.3,4.59,0,15.21,11.78,26.25,28,26.25,3.99,0,7.76-.54,11.32-1.53-.76,1.31-1.47,2.52-2.13,3.61-2.68,4.44-5.18,8.24-7.48,11.49l-12.27-5.26c-5.51-2.36-11.71-3.56-18.44-3.56-8.38,0-15.71,1.96-21.22,5.68-6.63,4.47-10.28,11.16-10.28,18.82,0,8.82,5.45,16.17,14.96,20.18,6.4,2.7,14.65,4.07,24.54,4.07,16.42,0,32.04-4.56,46.45-13.55,12.16-7.59,23.46-18.35,33.58-31.99,9.23-12.45,18.32-28.2,29.83-48.15,2.39-4.15,4.9-8.49,7.54-13.04,7.85-13.46,14.35-25.5,14.35-36.52,0-14.88-10.6-24.5-27-24.5-11.13,0-21.83,5.76-29.44,15.83-2.88-8.94-11.09-16.33-25.56-16.33h0ZM922.13,833.21c.48-1.24,1.64-2.93,3.18-3.31l2.8-.7c-2.56,2.32-4.56,3.54-5.97,4.01h0Z"/>
    </g>
    <g>
      <path class="cls-1" d="M1047.38,798.44c-18.98,0-31.25-10.11-31.25-25.75,0-18.63,14.86-30.16,28.62-30.16.11,0,.22,0,.33,0,1.31-1.43,2.7-2.96,4.16-4.57,5.76-6.36,12.94-14.27,20.44-21.4,9.47-9.09,28.06-24.38,45.94-24.38,11.3,0,19.5,7.04,19.5,16.75,0,10.46-9.94,18.91-22.62,19.25l-7.13.19,2.26-6.77c.15-.45.49-1.74.49-4.17,0-6.63-1.31-9.39-1.88-10-.79.03-1.39.29-1.93.85-1.32,1.36-2.04,4.16-1.94,7.49.08,2.1.46,4.71.91,7.74.94,6.3,2.1,14.15,1.58,24.18-.31,7.49-2.36,15-5.85,21.8.84-.62,1.59-1.2,2.25-1.73,9.18-7.4,16.78-15.73,19.33-21.2l9.39,3.29c-2.68,11.05-12.73,21.16-20.69,27.69-8.69,7.01-21.12,13.64-31.69,16.91-8.14,2.53-19.16,3.97-30.23,3.97ZM1057.56,760.15c-4.6.63-13.43,10.17-13.43,21.55,0,4.5,1.39,4.5,2.5,4.5,1.73,0,3.89-.65,7.46-8.36,2.29-4.96,3.91-11.02,5.73-18l-2.26.31ZM1057.84,747.65c1.47,1.52,2.78,3.43,3.68,5.69h0c1.06-3.95,2.21-8,3.61-12.22.27-.83.56-1.67.86-2.49-.43.48-.86.97-1.29,1.45-2.23,2.5-4.5,5.05-6.86,7.58Z"/>
      <path d="M1115.63,697.19c8.25,0,14.5,4.75,14.5,11.75,0,8-8.25,14-17.75,14.25.5-1.5.75-3.5.75-5.75,0-8.5-2-15-6.75-15-5.75,0-9.25,5.5-9,13.5.25,7,3.25,17,2.5,31.5-.5,12-5.75,23-13,30.75-4.25,4.5-8.25,6.5-12.25,8.25-1.02.41-1.04.82-.33.82.16,0,.35-.02.58-.07,11.75-3.25,22.25-9.75,29.5-15.5,7.75-6.25,17.25-15.5,20.75-23-2,8.25-9.25,17-19,25-7.75,6.25-19.5,12.75-30,16-7.25,2.25-17.5,3.75-28.75,3.75-13.5,0-26.25-6-26.25-20.75,0-16.04,12.96-25.16,23.62-25.16.81,0,1.6.05,2.38.16,6.75-7.25,16-18,26-27.5,12.5-12,28.5-23,42.5-23M1046.63,791.19c5.5,0,8.75-4.25,12-11.25,4.5-9.75,6.5-23,11.25-37.25,4.75-14.5,13.75-28.25,25.75-36.25.55-.37.56-.6.24-.6-.12,0-.28.03-.49.1-6,2.75-15.75,11.25-21,16.5-9.25,9-16,17.75-24.25,26,2,.5,5.25,3,6.75,6.75-7.25,1-17.75,12.75-17.75,26.5,0,5.75,2.25,9.5,7.5,9.5M1115.63,687.19c-18.64,0-37.15,14.01-49.41,25.77-7.63,7.25-14.87,15.23-20.68,21.65-.93,1.03-1.84,2.03-2.71,2.99-15.6,1.01-31.7,14.24-31.7,35.09,0,18.39,14.57,30.75,36.25,30.75,11.73,0,22.99-1.49,31.71-4.2,11.12-3.44,24.2-10.42,33.31-17.77l.03-.03.03-.03c12.43-10.2,19.96-20.42,22.38-30.37l-18.78-6.58c-1.12,2.4-3.52,5.59-6.73,9.05.27-1.86.45-3.73.53-5.6.28-5.44.08-10.33-.31-14.64l3.08-.08c15.41-.41,27.49-11.06,27.49-24.25,0-12.4-10.53-21.75-24.5-21.75h0Z"/>
    </g>
    <g>
      <path class="cls-1" d="M1141.38,798.44c-16.83,0-28.11-9.43-28.75-24.03-.28-7.58,1.57-15.02,6-24.15,3.78-7.76,11.4-20.28,21.31-35.07h-6.31c-3.41,0-5.78-1.13-7.05-3.37-1.11-1.97-1.02-4.32.26-6.45,2.21-3.68,6.83-3.68,10.54-3.68h11.81c3.66-5.47,8.67-12.56,11.91-16.97,8.14-11.45,12.22-15.03,21.78-15.03,1.63,0,3.88.05,6.27.11,2.88.07,6.15.14,8.98.14,3.99,0,6.62-2.5,9.9-6.02,2.28-2.45,4.63-4.98,8.1-4.98h10.37l-6.45,8.11c-6.37,8-17.6,24.22-24.5,34.64h.34c2.04,0,4.98.27,6.9,2.62,1.21,1.47,1.65,3.38,1.25,5.36-1.1,5.52-6.54,5.52-10.9,5.52h-6.41c-13.89,19.83-25.01,38.97-30.89,50.52-2.75,5.49-4.21,10.34-4.21,13.98,0,2.5.73,2.5,1.5,2.5,2.13,0,7.9-2.48,15.97-11.78,7.34-8.56,11.93-15.62,16.96-24.24l19.13-32.8-9.99,36.64c-2.4,8.8-8.58,19.62-16.52,28.93-11.9,13.68-23.04,19.5-37.3,19.5Z"/>
      <path d="M1216.13,663.94c-8.75,11-25.5,35.75-29.75,42.75h9.5c2.75,0,3.5.75,3.25,2s-1.25,1.5-6,1.5h-9c-14,19.75-26,40-32.75,53.25-2.75,5.5-4.75,11.25-4.75,16.25,0,2,.5,7.5,6.5,7.5,4.5,0,11.5-4,19.75-13.5,7.5-8.75,12.25-16,17.5-25-2.25,8.25-8.25,18.5-15.5,27-10,11.5-19.75,17.75-33.5,17.75-14.75,0-23.25-7.75-23.75-19.25-.25-6.75,1.5-13.5,5.5-21.75,4.75-9.75,15.25-26.25,26.25-42.25h-15.75c-2.75,0-3.25-1-2.5-2.25s3.75-1.25,6.25-1.25h14.5c3.75-5.75,9.75-14.25,13.25-19,8-11.25,10.75-13,17.75-13,3.5,0,10,.25,15.25.25,10.25,0,14.5-11,18-11M1236.86,653.94h-20.73c-5.64,0-9.18,3.8-11.76,6.57-2.56,2.76-4.26,4.43-6.24,4.43-2.77,0-6.01-.08-8.87-.14-2.52-.06-4.69-.11-6.38-.11-12.29,0-17.56,5.49-25.85,17.14-2.85,3.87-7.03,9.77-10.49,14.86h-9.15c-4.17,0-11.16,0-14.82,6.11-2.2,3.66-2.32,7.96-.32,11.48,1.07,1.88,3.51,4.86,8.57,5.69-6.08,9.34-12.82,20.22-16.66,28.09-4.81,9.92-6.81,18.09-6.5,26.5v.03s0,.03,0,.03c.37,8.51,3.96,16.03,10.1,21.17,5.97,5,14.15,7.64,23.64,7.64,20.05,0,32.47-11.32,41.05-21.19l.03-.04.03-.04c8.4-9.85,14.95-21.38,17.54-30.86l19.98-73.27-13.43,23.02c-.84-1.01-1.82-1.84-2.93-2.5,6.63-9.8,15.11-21.87,20.31-28.4l12.91-16.23h0ZM1189.33,720.19h3.8c.84,0,1.61,0,2.31-.03l-13.7,23.49c-4.88,8.37-9.33,15.22-16.43,23.51-3.17,3.65-5.77,5.98-7.76,7.47.55-1.78,1.41-4,2.76-6.69,5.6-10.99,15.99-28.93,29.02-47.75h0Z"/>
    </g>
    <g>
      <path class="cls-1" d="M1208.63,798.19c-22.4,0-35.25-11.21-35.25-30.75,0-14.82,8.79-34.09,21.87-47.93,19.08-20.14,43.19-27.32,59.38-27.32s25.75,8.44,25.75,21c0,14.55-10.94,24.33-24.58,28.77l2.43,4.25c1.1,1.92,2.41,5.04,2.41,8.98,0,10.15-4.26,19.54-12.32,27.14-10.79,10.23-24.89,15.86-39.68,15.86ZM1228.04,742.28c-10.32,16.39-15.16,31.69-15.16,37.42,0,4.3,1.29,4.75,4.25,4.75,3.62,0,12.7-4.32,20.37-12.43,6.41-6.7,12.59-16.79,11.48-22.34l-1.15-5.76c-3.12.52-6.3.78-9.44.78-3.76,0-7.39-.89-10.34-2.42ZM1240.91,723.15c-1.59,2.23-3.65,5.17-5.54,7.97,2.25-.79,5.3-2.95,8.56-6.69l-.84-4.2c-.73.98-1.46,1.95-2.18,2.91ZM1245.03,723.13c.49-.61.99-1.25,1.48-1.93,3.67-5.01,6.05-10.13,7.06-13.85-3.21,3.12-7.48,8.86-10.13,12.4l-.2.26,1.78,3.11Z"/>
      <path d="M1254.63,697.19c12.5,0,20.75,6.25,20.75,16,0,16.5-18.25,26.5-37,26.5-5,0-9.75-2-11.5-4.75-12,17.5-19,36.5-19,44.75,0,6.75,3.25,9.75,9.25,9.75,5.25,0,15.5-5,24-14,5.5-5.75,14.5-18,12.75-26.75,1,1.75,1.75,4,1.75,6.5,0,6.5-2,15.25-10.75,23.5-9.5,9-22.25,14.5-36.25,14.5-19.75,0-30.25-9.25-30.25-25.75,0-12.75,7.75-31,20.5-44.5,18-19,40.5-25.75,55.75-25.75M1233.6,736.47c11.16,0,25.52-22.01,25.52-32.53,0-2.75-.75-3.75-2.5-3.75-5.5,0-12.75,10.75-19.75,20-2.5,3.5-6.5,9.25-9,13.25,1,1.75,3,2.75,5,3,.24.02.48.03.73.03M1254.63,687.19c-6.5,0-14.2,1.08-22.34,3.57l-.3-.53.12.59c-13.39,4.12-27.98,12.05-40.49,25.25-13.91,14.72-23.24,35.37-23.24,51.38,0,11.14,3.87,20.35,11.2,26.65,7.03,6.04,16.8,9.1,29.05,9.1,16.08,0,31.39-6.12,43.13-17.24,9.07-8.55,13.87-19.19,13.87-30.76,0-3.69-.91-7.36-2.63-10.66,2.26-1.04,4.42-2.23,6.43-3.55,10.29-6.8,15.96-16.66,15.96-27.78,0-15.31-12.64-26-30.75-26h0ZM1217.89,779.3c.22-4.39,4-16.77,12.23-30.81,2.59.78,5.39,1.2,8.26,1.2,1.83,0,3.65-.08,5.46-.23l.24,1.19c.55,2.77-3.77,11.18-10.17,17.88l-.02.02-.02.02c-6.3,6.67-13.15,10.01-15.97,10.72h0Z"/>
    </g>
    <g>
      <path class="cls-1" d="M1287.87,798.36c-21.01,0-28.5-12.74-28.5-24.67,0-8.82,3.45-19.14,9.98-29.85,2.6-4.33,5.29-8.54,7.88-12.62,3.35-5.25,7.61-11.93,9.67-16.15-2.03,1.53-5.07,4.51-9.22,10.29l-16.61,23.11,7.74-27.39c3.82-13.53,19.46-28.14,38.06-28.14,11.79,0,19.86,5.94,21.46,15.42,8.05-8.95,16.79-15.42,27.04-15.42,13.21,0,21.75,7.36,21.75,18.75,0,19.01-17,32.25-32.25,32.25-7.6,0-13.64-1.82-17.95-5.41l-3.84-3.2c-.8,1.03-1.56,2.01-2.25,2.91-16.97,22.63-27.25,40.86-27.46,48.75,0,1.07.21,1.45.24,1.5,0,0,.04.02.11.05l19.76,7.91-21.22,1.72c-1.5.12-2.99.18-4.41.18ZM1329.41,729.69c2.54-1.63,7.83-8.8,10.72-14.64-3.59,3.5-8.32,9.21-12.63,14.64h1.9Z"/>
      <path d="M1355.37,697.94c10,0,16.75,4.75,16.75,13.75,0,16.5-15.25,27.25-27.25,27.25-7,0-11.75-1.75-14.75-4.25,4.25,0,17-18,17-25.75,0-2-1.25-2.25-2.25-2.25-5.25,0-12.75,8.75-28,28.5-12,16-28.25,40-28.5,51.75,0,3,1,5.25,3.5,6.25-1.39.11-2.72.17-4,.17-15.8,0-23.5-8.34-23.5-19.67,0-7.5,3-17,9.25-27.25,9-15,19.5-29.25,19.5-34.75,0-2-1-3.25-3-3.25-4.75,0-10.75,6-16.5,14,3.25-11.5,16.75-24.5,33.25-24.5,11.25,0,16.75,6,16.75,14,0,5.5-3.25,13-7.5,18.75-.63.79-.46,1.28-.07,1.28.23,0,.54-.16.82-.53,12.5-17.5,24.25-33.5,38.5-33.5M1355.37,687.94c-9.62,0-17.8,4.56-25.2,11.38-4.01-6.56-11.61-11.38-23.3-11.38-21.21,0-38.46,16.16-42.87,31.78l-15.48,54.78,6.72-9.36c-.58,2.95-.87,5.8-.87,8.54,0,8.59,3.25,16.23,9.14,21.52,5.93,5.33,14.36,8.14,24.35,8.14,1.56,0,3.17-.07,4.81-.2l42.44-3.44-36.45-14.58c1.58-6.72,9.59-21.61,25.22-42.63,5.21,4.27,12.27,6.43,20.99,6.43,17.62,0,37.25-15.3,37.25-37.25,0-14.21-10.75-23.75-26.75-23.75h0Z"/>
    </g>
    <g>
      <path class="cls-1" d="M1352.12,851.19c-21.92,0-34.5-7.02-34.5-19.25s10.65-19.5,26.5-19.5c6.04,0,11.59,1.06,16.47,3.15l13.64,5.85-14.4,3.6c-4.47,1.12-7.21,6.08-7.21,9.15,0,3.66,1.18,4.25,4,4.25,7.24,0,17.88-11.04,29.97-31.08,2.65-4.38,6.17-10.69,9.86-17.45-6.85,4.81-14.46,7.78-23.33,7.78-13.33,0-23-8.94-23-21.25,0-8.74,3.82-17.63,14.11-32.81l.61-.91c5.94-8.83,14.37-21.37,17.26-27.81-2.03,1.49-5.13,4.47-9.42,10.44l-16.61,23.11,7.74-27.39c3.82-13.53,19.46-28.14,38.06-28.14,13.21,0,21.75,7.46,21.75,19v.12c-.06,2.27-.33,4.58-.86,7l8.34-11.34c6.78-9.21,15.93-14.29,25.78-14.29,13.57,0,22,7.47,22,19.5,0,9.77-6.2,21.19-13.68,34.02-2.64,4.54-5.15,8.89-7.54,13.04-11.43,19.81-20.45,35.45-29.51,47.67-21.12,28.47-47.41,43.52-76.02,43.52ZM1417.83,732.46c-3.09,6.29-7.54,13.54-13.6,22.32-4.72,6.72-12.65,18.03-15.79,24.29,5.78-3.78,16.6-13.89,26.33-27.75,5.6-7.8,14.04-20.42,21-32.61.81-1.39,1.39-2.57,1.81-3.54l-19.76,17.29Z"/>
      <path d="M1401.87,697.94c11.25,0,16.75,6,16.75,14-.25,10.25-6.25,22.25-18.5,40-10,14.25-18,26-18,30.75,0,2,1,3,3,3,6,0,22-14.75,33.75-31.5,5.75-8,14.25-20.75,21.25-33,1.75-3,3.5-6.75,3.5-9.75,0-2-1.25-3-3.25-3-1.5,0-3.25.5-5.25,2.25,6.25-8.5,14.25-12.25,21.75-12.25,11.5,0,17,5.75,17,14.5s-6,19.5-13,31.5c-15.25,26.25-26,45.75-36.75,60.25-17.25,23.25-41,41.5-72,41.5-15.75,0-29.5-4-29.5-14.25,0-8.75,8.5-14.5,21.5-14.5,6.25,0,11,1.25,14.5,2.75-7,1.75-11,9-11,14,0,6.25,3.25,9.25,9,9.25,4.5,0,15.25-2,34.25-33.5,7.25-12,21-38.25,26.75-49l-.5-.5c-12.5,16.75-25.5,32.25-44,32.25-11,0-18-7-18-16.25,0-7.25,3.25-15.25,13.25-30,9.75-14.5,19.75-29.25,19.75-34.75,0-2-1-3.25-3-3.25-4.75,0-10.75,6-16.5,14,3.25-11.5,16.75-24.5,33.25-24.5M1401.87,687.94c-21.21,0-38.46,16.16-42.87,31.78l-15.48,54.78,1.91-2.65c-.2,1.54-.3,3.06-.3,4.59,0,15.21,11.78,26.25,28,26.25,3.99,0,7.76-.54,11.32-1.53-.76,1.31-1.47,2.52-2.13,3.61-2.68,4.44-5.18,8.24-7.48,11.49l-12.27-5.26c-5.51-2.36-11.71-3.56-18.44-3.56-8.38,0-15.71,1.96-21.22,5.68-6.63,4.47-10.28,11.16-10.28,18.82,0,8.82,5.45,16.17,14.96,20.18,6.4,2.7,14.65,4.07,24.54,4.07,16.42,0,32.04-4.56,46.45-13.55,12.16-7.59,23.46-18.35,33.58-31.99,9.23-12.45,18.32-28.2,29.83-48.15,2.39-4.15,4.9-8.49,7.54-13.04,7.85-13.46,14.35-25.5,14.35-36.52,0-14.88-10.6-24.5-27-24.5-11.13,0-21.83,5.76-29.44,15.83-2.88-8.94-11.09-16.33-25.56-16.33h0ZM1357.87,833.21c.48-1.24,1.64-2.93,3.18-3.31l2.8-.7c-2.56,2.32-4.56,3.54-5.97,4.01h0Z"/>
    </g>
  </g>
</svg>