<?xml version="1.0" encoding="UTF-8"?>
<svg xmlns="http://www.w3.org/2000/svg" viewBox="0 0 1834.04 1176.44">
  <defs>
    <style>
      .cls-1 {
        fill: #e5b6d6;
      }

      .cls-2 {
        fill: #ffefb5;
      }
    </style>
  </defs>
  <g id="Layer_1">
    <text/>
    <text/>
  </g>
  <g id="welcome">
    <g>
      <path d="M613.41,618.19c-10.65,0-19.32-2.98-25.77-8.85-4.83-4.4-10.58-12.57-10.58-26.49,0-12.97,4.57-27.8,12.99-42.55-14.11-1.9-23.6-12.45-23.6-26.95s11.96-26.56,22.4-34.96c9.61-7.81,26.96-16.2,42.39-16.2s27.68,4.08,37.8,7.37c4,1.3,8.44,2.74,11.32,3.23,2.08-.88,4.32-1.34,6.58-1.34,1.87,0,3.76.31,5.58.95,5.67,1.99,9.85,6.86,10.95,12.77.01.06.02.13.03.19,2.91-.73,5.89-1.27,8.93-1.63,3.49-7.75,12.58-15.31,25.99-15.31,18.53,0,31.97,14.51,31.97,34.5,0,18.65-8.94,40.53-26.56,65.02-15.46,21.5-39.57,50.08-70.2,50.08-12.82,0-22.9-3.3-30.06-9.82-9.22,6.5-19.52,9.99-30.19,9.99ZM689,587.78h0ZM719.98,522.77c-4.16,4.66-11.18,14.46-21.35,34.8-.02.03-.03.06-.05.09-2.05,4.03-3.84,8.21-5.31,12.14,3.89-4.65,8.25-10.74,13.38-18.65,5.39-8.3,10.44-18.58,14.05-28.02-.25-.11-.49-.23-.73-.35ZM612.6,505.04c1.02.67,1.97,1.46,2.83,2.36,1.28-1.26,2.57-2.48,3.84-3.64-2.43.03-5.11.67-6.67,1.28Z"/>
      <path d="M593.89,582.85c0-10.94,4.88-26.08,15.48-41.73,21.2-31.3,45.44-44.26,64.45-46.78-24.23,1.35-38.87-7.4-54.36-7.4-5.55,0-13.8,1.68-18.51,5.55-3.53,2.86-7.4,8.41-7.4,14.64s3.03,10.43,6.73,11.61c1.01.34,2.19.5,3.03.34-1.51,3.37-5.72,4.71-8.58,4.71-6.06,0-11.44-2.52-11.44-10.43s8.41-15.65,16.16-21.88c7.24-5.89,21.04-12.45,31.81-12.45,21.71,0,38.7,10.77,50.82,10.77,2.52,0,3.7-.5,4.88-1.51.5,2.69-2.19,5.39-8.41,5.89-16.83,1.18-41.23,39.88-52.17,62.26-7.07,14.47-9.42,23.73-9.59,30.12-.17,7.07,3.2,9.42,7.4,9.42,7.57,0,17-8.41,27.26-26.59,1.01-4.38,5.55-15.99,10.6-25.41,14.98-27.43,33.15-43.92,59.24-43.92,5.55,0,8.92,2.02,8.92,4.54.17,1.85-1.35,2.86-2.52,3.2.17-4.04-2.69-5.55-5.39-5.55-13.97,0-31.3,32.98-38.71,47.79-5.55,10.94-11.78,27.6-11.44,37.53.17,6.23,2.19,9.76,8.58,9.76,12.96,0,25.75-14.98,40.05-37.02,10.94-16.83,22.21-43.59,22.21-59.07,0-7.74-3.37-11.78-10.77-11.78-1.85,0-3.7.5-4.54,1.51.67-2.19,4.21-5.72,10.77-5.72,9.42,0,15.15,7.07,15.15,17.67,0,13.46-6.56,31.81-23.39,55.2-13.8,19.18-33.99,43.08-56.54,43.08-18.17,0-26.59-8.58-23.22-25.41-7.24,12.28-19.86,25.58-37.02,25.58-12.45,0-19.52-5.72-19.52-18.51Z"/>
      <path d="M754.09,615c-22.59,0-37.19-13.41-37.19-34.16,0-13.38,7.22-29.68,18.39-41.51,13.42-14.16,32.01-22.61,49.76-22.61s30.8,11.61,30.8,27.6c0,6.54-1.96,12.54-5.45,17.65,1.48,3.37,1.86,7.24.86,11.03-3.04,11.54-12.21,21.18-19.37,27.24-.04.03-.08.07-.12.1-8.22,6.82-19.93,14.65-37.67,14.65ZM771.36,536.86h0Z"/>
      <path d="M733.73,580.84c0-8.58,5.22-20.87,13.8-29.95,12.12-12.79,27.26-17.33,37.53-17.33,8.41,0,13.97,4.21,13.97,10.77,0,11.11-12.28,17.84-24.91,17.84-3.37,0-6.56-1.35-7.74-3.2-8.08,11.78-12.79,24.23-12.79,29.79,0,4.54,2.52,6.56,6.39,6.56,5.05,0,12.62-3.03,20.36-9.76,5.72-4.88,11.11-11.27,14.64-16.83-1.68,6.39-7.4,13.13-13.97,18.68-7.91,6.56-15.82,10.77-26.93,10.77-13.29,0-20.36-6.23-20.36-17.33ZM786.4,535.57c-3.7,0-8.58,7.24-13.29,13.46-1.68,2.36-4.38,6.23-6.06,8.92.67,1.18,2.02,1.85,3.37,2.02,7.57.67,17.67-14.64,17.67-21.88,0-1.85-.5-2.52-1.68-2.52Z"/>
      <path d="M804.07,615.17c-18.42,0-32.31-13.02-32.31-30.29s11.84-34.96,22.29-51.12l.6-.92c3.68-5.67,13.39-20.15,19.37-28.2,6.12-8.59,12.31-15.68,25.56-15.68,1.15,0,2.79.03,4.59.08.93.02,1.92.04,2.9.06,2.25-2.41,7.17-7.37,15.06-7.37,6.4,0,12.25,3.64,15.09,9.38s2.16,12.6-1.73,17.68c-4.66,6.09-19.52,27.13-30.52,44.58,6.87,3.66,10.4,11.64,8.32,19.28-2.97,10.9-10.8,20.88-14.03,24.67-.05.05-.09.11-.14.16-6.65,7.6-17.51,17.69-35.05,17.69Z"/>
      <path d="M825.28,585.04c5.05-5.89,8.25-10.77,11.78-16.83-1.51,5.55-5.72,12.45-10.6,18.17-5.89,6.73-12.62,11.95-22.38,11.95s-15.48-6.06-15.48-13.46c0-11.95,11.27-29.11,20.19-42.91,4.04-6.23,13.46-20.19,18.85-27.43,5.39-7.57,7.24-8.75,11.95-8.75,2.36,0,6.9.17,10.43.17,6.9,0,9.76-7.4,12.12-7.4-6.06,7.91-25.41,35.51-36.52,54.19-6.06,10.27-12.28,20.87-14.98,26.76-2.19,4.71-3.03,8.08-3.03,10.27,0,2.36,1.01,4.38,4.38,4.38,3.03,0,7.74-2.69,13.29-9.09Z"/>
      <path d="M851.02,615c-22.24,0-37.19-13.59-37.19-33.82,0-14.49,7.99-31.68,20.36-43.82,13.71-13.33,30.91-20.64,48.47-20.64,16.48,0,28.44,11.82,28.44,28.1,0,5.93-1.47,11.63-4.01,16.62,1.68,3.5,2.15,7.57,1.1,11.56-3.04,11.54-12.21,21.18-19.37,27.24-.04.03-.08.07-.12.1-8.22,6.82-19.93,14.65-37.67,14.65Z"/>
      <path d="M830.66,581.17c0-10.27,6.39-23.05,15.31-31.81,11.95-11.61,25.58-15.82,36.69-15.82,7.74,0,11.61,4.88,11.61,11.27,0,8.75-6.39,17.5-13.13,17.5-4.54,0-6.23-2.52-6.23-5.55,0-6.56,12.28-13.97,12.28-19.02,0-1.35-1.01-2.19-2.36-2.19-5.39,0-12.79,9.42-23.9,27.6-6.73,11.11-10.1,20.53-10.1,26.08,0,3.87,2.36,5.89,5.89,5.89,5.05,0,12.79-2.86,20.53-9.59,5.72-4.88,11.11-11.27,14.64-16.83-1.68,6.39-7.4,13.13-13.97,18.68-7.91,6.56-15.82,10.77-26.93,10.77-12.12,0-20.36-5.39-20.36-17Z"/>
      <path d="M905.71,615c-21.1,0-35.84-14.19-35.84-34.5,0-6.88,1.81-24.75,18.55-42.01,14.05-14.45,30.51-21.77,48.93-21.77s30.8,13.09,30.8,31.13c0,11.77-3.54,23.12-10.83,34.71-17.04,26.82-37.47,32.44-51.6,32.44ZM921.66,593.52h0Z"/>
      <path d="M943.07,573.6c-11.44,18.01-24.74,24.57-37.36,24.57-10.43,0-19.02-5.55-19.02-17.67,0-7.24,2.86-19.02,13.8-30.29,11.95-12.28,24.57-16.66,36.85-16.66,9.42,0,13.97,6.56,13.97,14.3,0,6.9-1.68,15.31-8.25,25.75ZM939.71,535.74c-6.9,0-17.67,17.67-23.73,28.78-4.71,8.58-11.11,22.38-11.11,28.27,0,2.36,1.18,3.37,2.86,3.37,5.05,0,12.96-13.13,20.36-26.08,7.24-12.79,13.8-27.43,13.8-31.97,0-1.51-.84-2.36-2.19-2.36Z"/>
      <path d="M1038.15,615.17c-9.22,0-17.05-3.1-22.54-8.42-3,5.06-8.48,8.25-14.47,8.25-.25,0-.5,0-.75-.02-8.74-.39-16.27-3.83-21.56-9.29-2.83,5.67-8.64,9.3-15.05,9.3-.25,0-.5,0-.75-.02-17.22-.77-29.71-13.36-29.71-29.94,0-8.21,2.86-17.34,8.28-26.43-2.05-3.76-2.66-8.27-1.42-12.64,3.94-13.93,18.8-28.74,38.58-28.74,6.8,0,12.82,1.92,17.52,5.27,5.31-3,11.32-4.93,18.15-4.93,7.17,0,13.44,1.98,18.31,5.46,5.53-3.3,11.83-5.46,19.05-5.46,17.16,0,29.62,11.75,29.62,27.94,0,3.05-.43,5.99-1.21,8.87,5.77,3.98,8.58,11.27,6.67,18.28-2.97,10.9-10.8,20.88-14.03,24.67-.05.05-.09.11-.14.16-3.83,4.38-15.48,17.69-34.54,17.69Z"/>
      <path d="M969.49,543.31c0-1.35-.67-2.19-2.02-2.19-3.2,0-7.24,4.04-11.11,9.42,2.19-7.74,11.27-16.49,22.38-16.49,7.57,0,11.27,4.04,11.27,9.42,0,3.7-2.19,8.75-5.05,12.62-.5.67,0,1.01.5.5,8.41-11.11,17.5-22.21,28.94-22.21,6.9,0,12.28,3.2,12.28,10.6,0,3.37-2.36,8.25-4.38,11.11-.5.84.17,1.01.5.5,8.41-11.11,17.5-22.21,28.94-22.21,6.9,0,12.79,3.7,12.79,11.11,0,6.23-4.04,13.13-10.6,22.72-7.91,11.44-11.95,18.01-11.95,22.38,0,1.68,1.01,3.53,3.53,3.53,3.03,0,7.74-2.69,13.29-9.09,5.05-5.89,8.25-10.77,11.78-16.83-1.51,5.55-5.72,12.45-10.6,18.17-5.89,6.73-12.62,11.95-21.88,11.95-9.76,0-14.3-5.55-14.3-12.96,0-6.9,3.53-13.97,11.11-24.4,6.39-8.92,11.44-16.66,11.44-19.86,0-1.01-.51-1.85-1.85-1.85-3.7,0-11.11,6.06-21.71,19.86-5.22,6.9-11.44,16.32-15.99,24.23-4.38,7.57-7.07,13.8-5.72,14.81-7.57-.34-13.63-4.88-13.63-13.13,0-5.05,2.02-11.95,6.56-18.68,6.73-10.1,14.98-21.04,14.98-25.24,0-1.01-.5-1.85-1.85-1.85-3.7,0-11.11,6.06-21.71,19.86-5.22,6.9-11.44,16.32-15.99,24.23-4.38,7.57-7.07,13.8-5.72,14.81-7.57-.34-13.63-4.88-13.63-13.13,0-5.05,2.02-11.44,6.23-18.34,6.06-10.1,13.13-19.69,13.13-23.39Z"/>
      <path d="M1084.6,615c-22.59,0-37.19-13.41-37.19-34.16,0-13.38,7.22-29.68,18.39-41.51,13.42-14.16,32.01-22.61,49.76-22.61s30.8,11.61,30.8,27.6c0,10.51-5.07,19.65-13.41,25.9.07.79.11,1.58.11,2.37,0,10.64-4.33,20.34-12.52,28.06-9.76,9.24-22.53,14.34-35.95,14.34Z"/>
      <path d="M1106.48,586.22c3.7-3.87,9.76-12.12,8.58-18.01.67,1.18,1.18,2.69,1.18,4.38,0,4.38-1.35,10.27-7.24,15.82-6.4,6.06-14.98,9.76-24.4,9.76-13.29,0-20.36-6.23-20.36-17.33,0-8.58,5.22-20.87,13.8-29.95,12.12-12.79,27.26-17.33,37.53-17.33,8.41,0,13.97,4.21,13.97,10.77,0,11.11-12.28,17.84-24.91,17.84-3.37,0-6.56-1.35-7.74-3.2-8.08,11.78-12.79,24.57-12.79,30.12,0,4.54,2.19,6.56,6.23,6.56,3.53,0,10.43-3.37,16.16-9.42ZM1116.91,535.57c-3.7,0-8.58,7.24-13.29,13.46-1.68,2.36-4.38,6.23-6.06,8.92.67,1.18,2.02,1.85,3.37,2.02,7.57.67,17.67-14.64,17.67-21.88,0-1.85-.5-2.52-1.68-2.52Z"/>
    </g>
    <g>
      <path class="cls-1" d="M590.79,570.62c0-10.94,4.88-26.08,15.48-41.73,21.2-31.3,45.44-44.26,64.45-46.78-24.23,1.35-38.87-7.4-54.36-7.4-5.55,0-13.8,1.68-18.51,5.55-3.53,2.86-7.4,8.41-7.4,14.64s3.03,10.43,6.73,11.61c1.01.34,2.19.5,3.03.34-1.51,3.37-5.72,4.71-8.58,4.71-6.06,0-11.44-2.52-11.44-10.43s8.41-15.65,16.16-21.88c7.24-5.89,21.04-12.45,31.81-12.45,21.71,0,38.7,10.77,50.82,10.77,2.52,0,3.7-.5,4.88-1.51.5,2.69-2.19,5.39-8.41,5.89-16.83,1.18-41.23,39.88-52.17,62.26-7.07,14.47-9.42,23.73-9.59,30.12-.17,7.07,3.2,9.42,7.4,9.42,7.57,0,17-8.41,27.26-26.59,1.01-4.38,5.55-15.99,10.6-25.41,14.98-27.43,33.15-43.92,59.24-43.92,5.55,0,8.92,2.02,8.92,4.54.17,1.85-1.35,2.86-2.52,3.2.17-4.04-2.69-5.55-5.39-5.55-13.97,0-31.3,32.98-38.71,47.79-5.55,10.94-11.78,27.6-11.44,37.53.17,6.23,2.19,9.76,8.58,9.76,12.96,0,25.75-14.98,40.05-37.02,10.94-16.83,22.21-43.59,22.21-59.07,0-7.74-3.37-11.78-10.77-11.78-1.85,0-3.7.5-4.54,1.51.67-2.19,4.21-5.72,10.77-5.72,9.42,0,15.15,7.07,15.15,17.67,0,13.46-6.56,31.81-23.39,55.2-13.8,19.18-33.99,43.08-56.54,43.08-18.17,0-26.59-8.58-23.22-25.41-7.24,12.28-19.86,25.58-37.02,25.58-12.45,0-19.52-5.72-19.52-18.51Z"/>
      <path class="cls-1" d="M730.63,568.6c0-8.58,5.22-20.87,13.8-29.95,12.12-12.79,27.26-17.33,37.53-17.33,8.41,0,13.97,4.21,13.97,10.77,0,11.11-12.28,17.84-24.91,17.84-3.37,0-6.56-1.35-7.74-3.2-8.08,11.78-12.79,24.23-12.79,29.79,0,4.54,2.52,6.56,6.39,6.56,5.05,0,12.62-3.03,20.36-9.76,5.72-4.88,11.11-11.27,14.64-16.83-1.68,6.39-7.4,13.13-13.97,18.68-7.91,6.56-15.82,10.77-26.93,10.77-13.29,0-20.36-6.23-20.36-17.33ZM783.3,523.33c-3.7,0-8.58,7.24-13.29,13.46-1.68,2.36-4.38,6.23-6.06,8.92.67,1.18,2.02,1.85,3.37,2.02,7.57.67,17.67-14.64,17.67-21.88,0-1.85-.5-2.52-1.68-2.52Z"/>
      <path class="cls-1" d="M822.18,572.81c5.05-5.89,8.25-10.77,11.78-16.83-1.51,5.55-5.72,12.45-10.6,18.17-5.89,6.73-12.62,11.95-22.38,11.95s-15.48-6.06-15.48-13.46c0-11.95,11.27-29.11,20.19-42.91,4.04-6.23,13.46-20.19,18.85-27.43,5.39-7.57,7.24-8.75,11.95-8.75,2.36,0,6.9.17,10.43.17,6.9,0,9.76-7.4,12.12-7.4-6.06,7.91-25.41,35.51-36.52,54.19-6.06,10.27-12.28,20.87-14.98,26.76-2.19,4.71-3.03,8.08-3.03,10.27,0,2.36,1.01,4.38,4.38,4.38,3.03,0,7.74-2.69,13.29-9.09Z"/>
      <path class="cls-1" d="M827.56,568.94c0-10.27,6.39-23.05,15.31-31.81,11.95-11.61,25.58-15.82,36.69-15.82,7.74,0,11.61,4.88,11.61,11.27,0,8.75-6.39,17.5-13.13,17.5-4.54,0-6.23-2.52-6.23-5.55,0-6.56,12.28-13.97,12.28-19.02,0-1.35-1.01-2.19-2.36-2.19-5.39,0-12.79,9.42-23.9,27.6-6.73,11.11-10.1,20.53-10.1,26.08,0,3.87,2.36,5.89,5.89,5.89,5.05,0,12.79-2.86,20.53-9.59,5.72-4.88,11.11-11.27,14.64-16.83-1.68,6.39-7.4,13.13-13.97,18.68-7.91,6.56-15.82,10.77-26.93,10.77-12.12,0-20.36-5.39-20.36-17Z"/>
      <path class="cls-1" d="M939.97,561.36c-11.44,18.01-24.74,24.57-37.36,24.57-10.43,0-19.02-5.55-19.02-17.67,0-7.24,2.86-19.02,13.8-30.29,11.95-12.28,24.57-16.66,36.85-16.66,9.42,0,13.97,6.56,13.97,14.3,0,6.9-1.68,15.31-8.25,25.75ZM936.61,523.5c-6.9,0-17.67,17.67-23.73,28.78-4.71,8.58-11.11,22.38-11.11,28.27,0,2.36,1.18,3.37,2.86,3.37,5.05,0,12.96-13.13,20.36-26.08,7.24-12.79,13.8-27.43,13.8-31.97,0-1.51-.84-2.36-2.19-2.36Z"/>
      <path class="cls-1" d="M966.39,531.07c0-1.35-.67-2.19-2.02-2.19-3.2,0-7.24,4.04-11.11,9.42,2.19-7.74,11.27-16.49,22.38-16.49,7.57,0,11.27,4.04,11.27,9.42,0,3.7-2.19,8.75-5.05,12.62-.5.67,0,1.01.5.5,8.41-11.11,17.5-22.21,28.94-22.21,6.9,0,12.28,3.2,12.28,10.6,0,3.37-2.36,8.25-4.38,11.11-.5.84.17,1.01.5.5,8.41-11.11,17.5-22.21,28.94-22.21,6.9,0,12.79,3.7,12.79,11.11,0,6.23-4.04,13.13-10.6,22.72-7.91,11.44-11.95,18.01-11.95,22.38,0,1.68,1.01,3.53,3.53,3.53,3.03,0,7.74-2.69,13.29-9.09,5.05-5.89,8.25-10.77,11.78-16.83-1.51,5.55-5.72,12.45-10.6,18.17-5.89,6.73-12.62,11.95-21.88,11.95-9.76,0-14.3-5.55-14.3-12.96,0-6.9,3.53-13.97,11.11-24.4,6.39-8.92,11.44-16.66,11.44-19.86,0-1.01-.51-1.85-1.85-1.85-3.7,0-11.11,6.06-21.71,19.86-5.22,6.9-11.44,16.32-15.99,24.23-4.38,7.57-7.07,13.8-5.72,14.81-7.57-.34-13.63-4.88-13.63-13.13,0-5.05,2.02-11.95,6.56-18.68,6.73-10.1,14.98-21.04,14.98-25.24,0-1.01-.5-1.85-1.85-1.85-3.7,0-11.11,6.06-21.71,19.86-5.22,6.9-11.44,16.32-15.99,24.23-4.38,7.57-7.07,13.8-5.72,14.81-7.57-.34-13.63-4.88-13.63-13.13,0-5.05,2.02-11.44,6.23-18.34,6.06-10.1,13.13-19.69,13.13-23.39Z"/>
      <path class="cls-1" d="M1103.38,573.98c3.7-3.87,9.76-12.12,8.58-18.01.67,1.18,1.18,2.69,1.18,4.38,0,4.38-1.35,10.27-7.24,15.82-6.4,6.06-14.98,9.76-24.4,9.76-13.29,0-20.36-6.23-20.36-17.33,0-8.58,5.22-20.87,13.8-29.95,12.12-12.79,27.26-17.33,37.53-17.33,8.41,0,13.97,4.21,13.97,10.77,0,11.11-12.28,17.84-24.91,17.84-3.37,0-6.56-1.35-7.74-3.2-8.08,11.78-12.79,24.57-12.79,30.12,0,4.54,2.19,6.56,6.23,6.56,3.53,0,10.43-3.37,16.16-9.42ZM1113.81,523.33c-3.7,0-8.58,7.24-13.29,13.46-1.68,2.36-4.38,6.23-6.06,8.92.67,1.18,2.02,1.85,3.37,2.02,7.57.67,17.67-14.64,17.67-21.88,0-1.85-.5-2.52-1.68-2.52Z"/>
    </g>
  </g>
  <g id="to_the">
    <g>
      <path d="M1074.14,662.4c-13.57,0-23.83-9.38-24.39-22.31,0-.04,0-.08,0-.12-.18-4.84.92-9.65,3.36-14.69.28-.58.6-1.19.93-1.81-.89-4.31-.16-8.89,2.17-12.79,1.61-2.68,5.07-6.82,11.67-8.27,2.81-3.82,8.11-9.95,18.35-10.06,3.1-2.13,6.51-3.21,10.19-3.21,6.65,0,12.72,3.81,15.61,9.8,2.89,5.99,2.1,13.11-2.05,18.32-.37.46-.81,1.05-1.3,1.72.06,1.4-.06,2.82-.34,4.23-.12.61-.71,3.18-2.46,5.98.34,2.31.22,4.73-.43,7.11-1.81,6.62-5.88,12.07-8.16,14.73-.04.04-.07.08-.11.13-2.42,2.78-9.78,11.25-23.07,11.25Z"/>
      <path d="M1067.06,639.33c-.07-2.01.45-4.02,1.64-6.48,1.42-2.91,4.55-7.82,7.82-12.59h-4.7c-.82,0-.97-.3-.74-.67.22-.37,1.12-.37,1.86-.37h4.32c1.12-1.71,2.91-4.25,3.95-5.66,2.38-3.35,3.2-3.88,5.29-3.88,1.04,0,2.98.07,4.55.07,3.06,0,4.32-3.28,5.37-3.28-2.61,3.28-7.6,10.66-8.87,12.74h2.83c.82,0,1.04.22.97.6-.07.37-.37.45-1.79.45h-2.68c-4.17,5.89-7.75,11.92-9.76,15.87-.82,1.64-1.42,3.35-1.42,4.84,0,.6.15,2.24,1.94,2.24,1.34,0,3.43-1.19,5.89-4.02,2.24-2.61,3.65-4.77,5.22-7.45-.67,2.46-2.46,5.52-4.62,8.05-2.98,3.43-5.89,5.29-9.99,5.29-4.4,0-6.93-2.31-7.08-5.74Z"/>
      <path d="M1093.81,662.32c-14.68,0-25.75-10.82-25.75-25.16,0-8.99,4.01-18.27,11-25.48,8.05-8.27,17.99-12.64,28.76-12.64,13.41,0,23.52,10.17,23.52,23.67,0,7.03-2.12,13.97-6.31,20.63-10.5,16.53-24.06,18.98-31.21,18.98Z"/>
      <path d="M1110.36,634.11c-5.07,7.97-10.96,10.88-16.54,10.88-4.62,0-8.42-2.46-8.42-7.83,0-3.2,1.27-8.42,6.11-13.41,5.29-5.44,10.88-7.38,16.32-7.38,4.17,0,6.19,2.91,6.19,6.33,0,3.06-.75,6.78-3.65,11.4ZM1108.87,617.34c-3.06,0-7.82,7.83-10.51,12.74-2.09,3.8-4.92,9.91-4.92,12.52,0,1.04.52,1.49,1.27,1.49,2.23,0,5.74-5.81,9.02-11.55,3.2-5.66,6.11-12.15,6.11-14.16,0-.67-.37-1.04-.97-1.04Z"/>
      <path d="M1135.55,662.4c-13.57,0-23.83-9.38-24.39-22.31,0-.04,0-.08,0-.12-.18-4.84.92-9.65,3.36-14.69.28-.58.6-1.19.93-1.81-.89-4.31-.16-8.89,2.17-12.79,1.61-2.68,5.07-6.82,11.67-8.27,2.81-3.82,8.11-9.95,18.35-10.06,3.1-2.13,6.51-3.21,10.19-3.21,6.65,0,12.72,3.81,15.61,9.8,2.89,5.99,2.1,13.11-2.05,18.32-.37.46-.81,1.05-1.3,1.72.06,1.4-.06,2.82-.34,4.23-.12.61-.71,3.18-2.46,5.98.34,2.31.22,4.73-.43,7.11-1.81,6.62-5.88,12.07-8.16,14.73-.04.04-.07.08-.11.13-2.42,2.78-9.78,11.25-23.07,11.25Z"/>
      <path d="M1128.47,639.33c-.07-2.01.45-4.02,1.64-6.48,1.42-2.91,4.55-7.82,7.82-12.59h-4.7c-.82,0-.97-.3-.74-.67.22-.37,1.12-.37,1.86-.37h4.32c1.12-1.71,2.91-4.25,3.95-5.66,2.38-3.35,3.2-3.88,5.29-3.88,1.04,0,2.98.07,4.55.07,3.06,0,4.32-3.28,5.37-3.28-2.61,3.28-7.6,10.66-8.87,12.74h2.83c.82,0,1.04.22.97.6-.07.37-.37.45-1.79.45h-2.68c-4.17,5.89-7.75,11.92-9.76,15.87-.82,1.64-1.42,3.35-1.42,4.84,0,.6.15,2.24,1.94,2.24,1.34,0,3.43-1.19,5.89-4.02,2.24-2.61,3.65-4.77,5.22-7.45-.67,2.46-2.46,5.52-4.62,8.05-2.98,3.43-5.89,5.29-9.99,5.29-4.4,0-6.93-2.31-7.08-5.74Z"/>
      <path d="M1170.13,662.4c-3.28,0-6.36-.59-9.15-1.66-2.23,1.03-4.69,1.59-7.24,1.59-.26,0-.52,0-.78-.02-12.88-.58-22.59-10.52-22.59-23.13,0-5.25,1.59-10.65,4.85-16.52,4.18-7.6,9.65-16.17,15.82-24.79,2.53-3.56,7.85-11.03,19.18-11.12,3.1-2.13,6.51-3.2,10.19-3.2,6.58,0,12.59,3.72,15.52,9.61,2.59,5.21,2.38,11.31-.45,16.28,2.33,3.49,3.68,7.68,3.68,12.23,0,.26,0,.52-.01.78,2.53,4,3.41,8.99,2.09,13.85-1.78,6.51-5.92,12.03-8.23,14.73-.05.05-.09.11-.14.16-6.51,7.44-14.16,11.21-22.73,11.21Z"/>
      <path d="M1165.13,607.95c2.38-3.35,3.2-3.88,5.29-3.88,1.04,0,3.06.07,4.62.07,3.06,0,4.32-3.28,5.37-3.28-4.62,6.11-13.94,19.23-17.29,25.49-.15.3-.07.6.22.22,3.73-4.92,7.75-9.84,12.82-9.84,3.06,0,5.66,1.64,5.66,4.92,0,2.76-1.79,5.81-4.69,10.06-3.5,5.07-5.29,7.97-5.29,9.91,0,.74.45,1.56,1.56,1.56,1.34,0,3.43-1.19,5.89-4.02,2.24-2.61,3.65-4.77,5.22-7.45-.67,2.46-2.53,5.52-4.7,8.05-2.61,2.98-5.59,5.29-9.69,5.29-4.32,0-6.34-2.46-6.34-5.74,0-3.06,1.57-6.19,4.92-10.81,2.83-3.95,5.07-7.38,5.07-8.79,0-.45-.22-.82-.82-.82-1.64,0-4.92,2.68-9.61,8.79-2.31,3.06-5.07,7.23-7.08,10.73-1.94,3.35-3.13,6.11-2.53,6.56-3.35-.15-6.04-2.16-6.04-5.81,0-2.24.89-4.92,2.68-8.12,4.1-7.45,9.32-15.5,14.76-23.1Z"/>
      <path d="M1190.7,662.32c-15.27,0-26.35-10.52-26.35-25.01,0-8.44,4.15-18.08,10.84-25.17,7.78-8.21,18.7-13.11,29.22-13.11,13.41,0,23.52,9.5,23.52,22.1,0,6.03-2.26,11.5-6.09,15.8-.77,6.16-3.7,11.86-8.44,16.34-6.15,5.82-14.22,9.04-22.7,9.04Z"/>
      <path d="M1200.38,639.7c1.64-1.71,4.32-5.37,3.8-7.97.3.52.52,1.19.52,1.94,0,1.94-.6,4.55-3.2,7.01-2.83,2.68-6.63,4.32-10.81,4.32-5.89,0-9.02-2.76-9.02-7.68,0-3.8,2.31-9.24,6.11-13.27,5.37-5.66,12.07-7.68,16.62-7.68,3.73,0,6.19,1.86,6.19,4.77,0,4.92-5.44,7.9-11.03,7.9-1.49,0-2.91-.6-3.43-1.42-3.58,5.22-5.66,10.88-5.66,13.34,0,2.01.97,2.91,2.76,2.91,1.56,0,4.62-1.49,7.15-4.17ZM1205,617.27c-1.64,0-3.8,3.2-5.89,5.96-.75,1.04-1.94,2.76-2.68,3.95.3.52.89.82,1.49.89,3.35.3,7.82-6.48,7.82-9.69,0-.82-.22-1.12-.74-1.12Z"/>
    </g>
    <g>
      <path class="cls-1" d="M1066.93,628.09c-.07-2.01.45-4.02,1.64-6.48,1.42-2.91,4.55-7.82,7.82-12.59h-4.7c-.82,0-.97-.3-.74-.67.22-.37,1.12-.37,1.86-.37h4.32c1.12-1.71,2.91-4.25,3.95-5.66,2.38-3.35,3.2-3.88,5.29-3.88,1.04,0,2.98.07,4.55.07,3.06,0,4.32-3.28,5.37-3.28-2.61,3.28-7.6,10.66-8.87,12.74h2.83c.82,0,1.04.22.97.6-.07.37-.37.45-1.79.45h-2.68c-4.17,5.89-7.75,11.92-9.76,15.87-.82,1.64-1.42,3.35-1.42,4.84,0,.6.15,2.24,1.94,2.24,1.34,0,3.43-1.19,5.89-4.02,2.24-2.61,3.65-4.77,5.22-7.45-.67,2.46-2.46,5.52-4.62,8.05-2.98,3.43-5.89,5.29-9.99,5.29-4.4,0-6.93-2.31-7.08-5.74Z"/>
      <path class="cls-1" d="M1110.23,622.88c-5.07,7.97-10.96,10.88-16.54,10.88-4.62,0-8.42-2.46-8.42-7.83,0-3.2,1.27-8.42,6.11-13.41,5.29-5.44,10.88-7.38,16.32-7.38,4.17,0,6.19,2.91,6.19,6.33,0,3.06-.75,6.78-3.65,11.4ZM1108.74,606.11c-3.06,0-7.82,7.83-10.51,12.74-2.09,3.8-4.92,9.91-4.92,12.52,0,1.04.52,1.49,1.27,1.49,2.23,0,5.74-5.81,9.02-11.55,3.2-5.66,6.11-12.15,6.11-14.16,0-.67-.37-1.04-.97-1.04Z"/>
      <path class="cls-1" d="M1128.34,628.09c-.07-2.01.45-4.02,1.64-6.48,1.42-2.91,4.55-7.82,7.82-12.59h-4.7c-.82,0-.97-.3-.74-.67.22-.37,1.12-.37,1.86-.37h4.32c1.12-1.71,2.91-4.25,3.95-5.66,2.38-3.35,3.2-3.88,5.29-3.88,1.04,0,2.98.07,4.55.07,3.06,0,4.32-3.28,5.37-3.28-2.61,3.28-7.6,10.66-8.87,12.74h2.83c.82,0,1.04.22.97.6-.07.37-.37.45-1.79.45h-2.68c-4.17,5.89-7.75,11.92-9.76,15.87-.82,1.64-1.42,3.35-1.42,4.84,0,.6.15,2.24,1.94,2.24,1.34,0,3.43-1.19,5.89-4.02,2.24-2.61,3.65-4.77,5.22-7.45-.67,2.46-2.46,5.52-4.62,8.05-2.98,3.43-5.89,5.29-9.99,5.29-4.4,0-6.93-2.31-7.08-5.74Z"/>
      <path class="cls-1" d="M1165,596.72c2.38-3.35,3.2-3.88,5.29-3.88,1.04,0,3.06.07,4.62.07,3.06,0,4.32-3.28,5.37-3.28-4.62,6.11-13.94,19.23-17.29,25.49-.15.3-.07.6.22.22,3.73-4.92,7.75-9.84,12.82-9.84,3.06,0,5.66,1.64,5.66,4.92,0,2.76-1.79,5.81-4.69,10.06-3.5,5.07-5.29,7.97-5.29,9.91,0,.74.45,1.56,1.56,1.56,1.34,0,3.43-1.19,5.89-4.02,2.24-2.61,3.65-4.77,5.22-7.45-.67,2.46-2.53,5.52-4.7,8.05-2.61,2.98-5.59,5.29-9.69,5.29-4.32,0-6.34-2.46-6.34-5.74,0-3.06,1.57-6.19,4.92-10.81,2.83-3.95,5.07-7.38,5.07-8.79,0-.45-.22-.82-.82-.82-1.64,0-4.92,2.68-9.61,8.79-2.31,3.06-5.07,7.23-7.08,10.73-1.94,3.35-3.13,6.11-2.53,6.56-3.35-.15-6.04-2.16-6.04-5.81,0-2.24.89-4.92,2.68-8.12,4.1-7.45,9.32-15.5,14.76-23.1Z"/>
      <path class="cls-1" d="M1200.25,628.47c1.64-1.71,4.32-5.37,3.8-7.97.3.52.52,1.19.52,1.94,0,1.94-.6,4.55-3.2,7.01-2.83,2.68-6.63,4.32-10.81,4.32-5.89,0-9.02-2.76-9.02-7.68,0-3.8,2.31-9.24,6.11-13.27,5.37-5.66,12.07-7.68,16.62-7.68,3.73,0,6.19,1.86,6.19,4.77,0,4.92-5.44,7.9-11.03,7.9-1.49,0-2.91-.6-3.43-1.42-3.58,5.22-5.66,10.88-5.66,13.34,0,2.01.97,2.91,2.76,2.91,1.56,0,4.62-1.49,7.15-4.17ZM1204.87,606.04c-1.64,0-3.8,3.2-5.89,5.96-.75,1.04-1.94,2.76-2.68,3.95.3.52.89.82,1.49.89,3.35.3,7.82-6.48,7.82-9.69,0-.82-.22-1.12-.74-1.12Z"/>
    </g>
  </g>
  <g id="sainsbury">
    <g>
      <path d="M189.62,754.72c-59.06,0-63.65-35.3-63.65-46.11,0-27.22,23.7-49.36,52.82-49.36,7.35,0,13.35,1.39,18.22,3.44-.53-1.06-1.08-2.15-1.65-3.28-6.17-12.34-9.43-25.57-9.43-38.26,0-25.81,15.27-48.81,37.08-60.28,2.59-6.41,8.2-11.43,15.38-13.03,2.67-.59,6.8-1.38,11.85-1.38,37.35,0,63.43,21.01,63.43,51.09,0,26.42-21.28,43.27-42.16,44.9,4.42,12.13,5.95,22.38,5.32,33.93-2.13,43.94-40.42,78.34-87.22,78.34ZM189.03,709.45c.31.01.65.02,1.02.02,3.38,0,6.12-.65,8.32-1.71-1.38.27-2.78.41-4.21.41-1.48,0-2.97-.15-4.45-.46-.24.3-.55.84-.68,1.74Z"/>
      <path d="M233.57,603.18c0,11.91,6.71,22.08,13.21,36.15,6.71,14.51,9.09,24.25,8.44,35.94-1.52,32.04-29.88,57.8-65.6,57.8-15.37,0-42-3.03-42-24.46,0-16.45,15.8-27.71,31.17-27.71,5.2,0,11.26,1.08,15.37,5.63-1.73-.43-3.25-.65-4.76-.65-11.69,0-22.08,10.39-22.08,24.46,0,16.24,10.82,20.78,22.73,20.78,27.71,0,39.18-22.73,39.18-40.05,0-13.64-4.55-21.43-14.5-41.35-5.41-10.82-7.14-20.78-7.14-28.58,0-24.25,20.57-46.33,46.33-46.33,7.36,0,12.99,1.95,14.72,6.49-2.81-3.03-7.36-3.46-11.26-3.46-13.42,0-23.81,9.74-23.81,25.33ZM250.24,568.11c24.9,0,41.78,11.69,41.78,29.44,0,16.24-14.72,23.38-23.81,23.38-3.9,0-6.71-.65-9.31-2.38,10.61-1.73,19.7-11.91,19.7-23.81,0-16.02-10.61-25.98-35.51-25.76,1.95-.43,4.33-.87,7.14-.87Z"/>
      <path d="M329.47,741.95c-10.49,0-18.83-2.58-25.18-6.77-6.02,3.76-13.29,6.33-22.45,6.33-24.46,0-40.27-15.98-40.27-40.7,0-17.49,8.7-37.3,23.28-53.01,20.09-21.88,41.3-32.51,64.83-32.51,13.19,0,20.89,5.36,25.02,9.86.41.45.8.9,1.18,1.37.48,0,.99.01,1.53.02.02-.02.04-.03.05-.05,2.47-2.4,8.27-8.01,17.78-8.01,2.65,0,5.25.46,7.74,1.36,6.28,2.29,11.16,7.35,13.21,13.71,2.05,6.37,1.04,13.32-2.73,18.84-2.64,3.86-5.47,8.1-8.36,12.5,6.37,5.3,9.32,13.98,7.04,22.34-3.82,14.02-13.9,26.86-18.05,31.73-.06.07-.12.14-.18.21-4.93,5.63-19.92,22.76-44.44,22.76Z"/>
      <path d="M310.2,704.71c0-4.11,1.3-7.58,2.16-9.31.43-.65,0-1.3-.65-.43-1.95,3.03-6.49,9.96-10.18,14.07-6.06,6.71-11.26,10.82-19.7,10.82-12.34,0-18.62-6.49-18.62-19.05,0-11.04,6.06-25.98,17.54-38.32,16.89-18.4,32.91-25.55,48.93-25.55,5.85,0,11.47,1.73,10.82,9.31,3.03,1.52,9.96,1.95,18.19,1.95,11.47,0,14.51-8.88,16.89-8.01-12.12,17.75-27.71,42.43-34.64,54.77-3.68,6.49-6.06,11.91-6.06,15.37,0,2.16,1.08,4.33,4.33,4.33,3.9,0,9.74-3.25,16.89-11.47,6.49-7.58,10.61-13.86,15.15-21.65-1.95,7.14-7.36,16.02-13.64,23.38-7.58,8.66-16.24,15.37-28.14,15.37-13.86,0-19.27-6.71-19.27-15.59ZM335.32,640.42c-8.23,0-25.33,25.98-31.18,35.07-4.98,8.01-17.97,28.14-17.97,36.37,0,1.95,1.08,3.03,2.81,3.03,2.6,0,6.49-2.38,12.56-9.53,7.79-9.09,22.08-32.04,25.98-38.32l10.82-17.97c.87-4.98,0-8.66-3.03-8.66Z"/>
      <path d="M381.43,741.95c-23.58,0-40.05-15.67-40.05-38.1,0-12.5,4.69-23.6,12.25-35.35-2.34-4.69-2.98-10.21-1.47-15.57,3.56-12.59,14.04-25.73,28.77-32.44-.41-3.16-.39-6.41.08-9.64,2.86-19.09,19.33-33.44,38.31-33.44,9.58,0,18.77,4.16,25.22,11.41,6.61,7.43,9.75,17.31,8.64,27.13-1.18,10.83-7,20.34-15.31,26.61.48,2.29.73,4.68.73,7.16,0,4.77-.89,9.51-2.54,14.38,7.07,5.2,10.46,14.35,8.06,23.14-3.83,14.02-13.9,26.86-18.05,31.73-.06.07-.12.14-.18.2-4.93,5.63-19.92,22.76-44.44,22.76Z"/>
      <path d="M363.03,703.85c0-9.31,4.76-18.62,14.94-32.47,8.23-11.26,11.91-17.75,11.91-21.87,0-1.73-.87-2.81-2.6-2.81-4.11,0-9.31,5.2-14.29,12.12,2.81-9.96,14.51-21.22,28.79-21.22,9.74,0,15.15,5.2,15.15,12.12,0,8.23-6.71,19.48-15.15,31.82-10.18,14.72-15.37,23.16-15.37,28.79,0,2.16,1.3,4.55,4.55,4.55,3.9,0,9.96-3.46,17.1-11.69,6.49-7.58,10.61-13.86,15.15-21.65-1.95,7.14-7.36,16.02-13.64,23.38-7.58,8.66-16.24,15.37-28.14,15.37s-18.4-6.93-18.4-16.45ZM419.32,599.07c7.58,0,13.21,7.14,12.34,14.51-.87,8.23-8.23,15.15-16.89,15.15s-13.42-7.36-12.34-14.72c1.3-8.66,9.09-14.94,16.89-14.94Z"/>
      <path d="M481.23,741.95c-11.87,0-21.93-3.99-29-10.83-3.85,6.51-10.91,10.61-18.62,10.61-.32,0-.64,0-.97-.02-22.15-.98-38.23-17.18-38.23-38.51,0-10.56,3.68-22.3,10.66-34.01-2.64-4.83-3.42-10.64-1.83-16.26,5.07-17.92,24.18-36.98,49.63-36.98,8.74,0,16.49,2.47,22.54,6.78,6.83-3.86,14.57-6.35,23.35-6.35,22.08,0,38.1,15.11,38.1,35.94,0,3.93-.56,7.71-1.55,11.41,7.43,5.12,11.04,14.5,8.58,23.52-3.83,14.02-13.9,26.86-18.05,31.73-.06.07-.12.14-.18.21-4.93,5.63-19.92,22.76-44.44,22.76Z"/>
      <path d="M491.84,646.69c0-1.3-.65-2.38-2.38-2.38-4.76,0-14.29,7.79-27.93,25.55-6.71,8.88-14.72,21-20.57,31.17-5.63,9.74-9.09,17.75-7.36,19.05-9.74-.43-17.54-6.28-17.54-16.89,0-6.49,2.6-14.72,8.01-23.6,7.79-12.99,16.89-25.33,16.89-30.09,0-1.73-.87-2.81-2.6-2.81-4.11,0-9.31,5.2-14.29,12.12,2.81-9.96,14.51-21.22,28.79-21.22,9.74,0,14.51,5.2,14.51,12.12,0,4.76-2.81,11.26-6.49,16.24-.65,1.08,0,1.3.65.65,10.82-14.29,22.52-28.58,37.24-28.58,8.88,0,16.45,4.76,16.45,14.29,0,8.01-5.2,16.89-13.64,29.23-10.18,14.72-15.37,23.16-15.37,28.79,0,2.16,1.3,4.55,4.55,4.55,3.9,0,9.96-3.46,17.1-11.69,6.49-7.58,10.61-13.86,15.15-21.65-1.95,7.14-7.36,16.02-13.64,23.38-7.58,8.66-16.24,15.37-28.14,15.37-12.56,0-18.4-7.14-18.4-16.67,0-8.88,4.55-17.97,14.29-31.39,8.23-11.47,14.72-21.43,14.72-25.55Z"/>
      <path d="M528,741.95c-26.13,0-44.38-16.29-44.38-39.62s16.39-38.8,33.94-42.56c5.04-5.55,11.18-12.28,17.79-18.56,12.33-11.83,31.31-25.91,51.76-25.91,19.18,0,34.21,13.98,34.21,31.82,0,8.24-3.17,15.77-8.49,21.64,3.64,4.99,5.1,11.49,3.55,17.89-2.77,11.42-10.76,22.62-23.76,33.28-.05.04-.09.08-.14.11-9.21,7.43-21.92,14.2-33.17,17.69-8.75,2.72-19.87,4.22-31.3,4.22Z"/>
      <path d="M599.66,647.13c0,6.93-7.14,12.12-15.37,12.34.43-1.3.65-3.03.65-4.98,0-7.36-1.73-12.99-5.85-12.99-4.98,0-8.01,4.76-7.79,11.69.22,6.06,2.81,14.72,2.16,27.28-.43,10.39-4.98,19.92-11.26,26.63-3.68,3.9-7.14,5.63-10.61,7.14-1.08.43-.87.87.22.65,10.18-2.81,19.27-8.44,25.55-13.42,6.71-5.41,14.94-13.42,17.97-19.92-1.73,7.14-8.01,14.72-16.45,21.65-6.71,5.41-16.89,11.04-25.98,13.86-6.28,1.95-15.15,3.25-24.9,3.25-11.69,0-22.73-5.2-22.73-17.97,0-14.94,12.99-22.95,22.52-21.65,5.85-6.28,13.86-15.59,22.52-23.81,10.82-10.39,24.68-19.92,36.8-19.92,7.14,0,12.56,4.11,12.56,10.18ZM536.22,687.18c-6.28.87-15.37,11.04-15.37,22.95,0,4.98,1.95,8.23,6.49,8.23s7.58-3.68,10.39-9.74c3.9-8.44,5.63-19.92,9.74-32.26,4.11-12.56,11.91-24.46,22.3-31.39.65-.43.43-.65-.22-.43-5.2,2.38-13.64,9.74-18.19,14.29-8.01,7.79-13.86,15.37-21,22.52,1.73.43,4.55,2.6,5.85,5.84Z"/>
      <path d="M613.52,741.73c-24.69,0-36.16-12.07-40.8-19.26-4.71-7.3-11.05-23.01-.57-46.17,4.71-10.54,12.83-23.76,20.68-36.55,0,0,2.06-3.35,2.08-3.38,7.35-11.86,17.8-27.34,24.85-36.81,7.05-9.4,14.99-19.98,32.74-19.98,1.49,0,3.59.04,5.91.1,1.2.03,2.47.06,3.73.08,2.9-3.1,9.22-9.48,19.37-9.48,8.22,0,15.72,4.65,19.38,12.01,3.66,7.35,2.84,16.15-2.11,22.7-3.48,4.61-7.6,10.35-11.96,16.58,11.06,6.38,17.85,18.19,17.85,32.92s-6.16,32.49-16.46,46.7c-19.21,26.52-45.04,40.54-74.68,40.54ZM631.62,713.04h0Z"/>
      <path d="M635.81,661.63c6.71-9.74,17.32-23.6,30.53-23.6,10.61,0,16.67,5.85,16.67,16.45,0,9.96-4.33,22.95-12.34,33.99-15.37,21.22-35.07,31.61-57.15,31.61s-30.96-14.29-21.65-34.85c4.55-10.17,13.21-24.03,21.43-37.45,6.71-10.82,16.89-25.98,23.81-35.29,7.14-9.53,9.31-11.26,15.37-11.26,3.03,0,8.88.22,13.42.22,8.88,0,12.56-9.53,15.59-9.53-13.42,17.75-36.59,52.61-46.55,68.84-.87,1.3,0,2.16.87.87ZM610.05,711.86c0,2.6.87,5.41,4.76,5.41,6.28,0,12.77-9.53,28.58-35.29,10.61-17.32,16.45-29.66,16.45-34.21,0-1.95-.87-3.03-2.81-3.03-4.11,0-12.34,7.36-27.06,27.06-6.06,9.53-19.92,29.88-19.92,40.05Z"/>
      <path d="M746.01,741.95c-10.47,0-19.53-3.02-26.38-8.29-7.55,4.57-16.37,7.64-26.66,7.64-21.23,0-37.24-15.36-37.24-35.72,0-12.55,5.64-23.8,14.2-36.64-2.53-4.78-3.26-10.49-1.7-16.01,5.07-17.93,24.18-36.98,49.63-36.98,9.4,0,17.65,2.86,23.88,7.78,7.14-4.77,15.31-7.35,23.75-7.35,21.41,0,36.37,14.07,36.37,34.21,0,4.26-.73,8.51-1.97,12.72,7.86,5.02,11.74,14.67,9.22,23.94-2.89,10.59-9.76,22.59-18.4,32.13-9.9,11.18-22.96,22.57-44.7,22.57Z"/>
      <path d="M727.61,704.71c0-3.68,1.3-8.44,3.9-12.56.43-.65.22-1.08-.43-.43-10.82,14.5-22.08,27.93-38.1,27.93-9.53,0-15.59-6.06-15.59-14.07,0-6.28,2.81-13.21,11.47-25.98,8.44-12.56,17.1-25.33,17.1-30.09,0-1.73-.87-2.81-2.6-2.81-4.11,0-9.31,5.2-14.29,12.12,2.81-9.96,14.51-21.22,28.79-21.22,9.74,0,14.51,5.2,14.51,12.12-.22,8.88-6.71,21.43-16.02,34.64-8.66,12.34-15.59,22.52-15.59,26.63,0,1.73.87,2.6,2.6,2.6,5.2,0,19.05-12.77,29.23-27.28,4.98-6.93,12.34-17.97,18.4-28.58,1.52-2.6,3.03-5.85,3.03-8.44,0-1.73-1.08-2.6-2.81-2.6-1.3,0-2.81.43-4.55,1.95,5.41-7.36,12.34-10.61,18.84-10.61,9.96,0,14.72,4.98,14.72,12.56s-4.98,16.89-11.47,27.28c-8.66,13.86-16.67,25.76-16.67,32.26,0,2.6,1.3,4.76,4.55,4.76,3.9,0,9.31-3.46,16.45-11.69,6.49-7.58,10.61-13.86,15.15-21.65-1.95,7.14-7.14,16.24-13.64,23.38-8.23,9.31-15.8,15.37-28.58,15.37s-18.4-6.71-18.4-15.59Z"/>
      <path d="M800.99,741.88c-24.73,0-42-15.91-42-38.68,0-10.56,3.68-22.3,10.66-34.01-2.64-4.83-3.42-10.64-1.83-16.26,5.07-17.92,24.18-36.98,49.63-36.98,8.13,0,15.4,2.14,21.25,5.91,6.12-3.64,12.97-5.91,20.75-5.91,20.95,0,36.15,14.11,36.15,33.56,0,27.07-23.4,45.25-45.25,45.25-5.49,0-10.15-.79-14.07-2.01-6.3,9.11-9.86,15.49-11.69,19.36,1.37,3.47,1.87,7.31,1.28,11.2-1.5,9.94-9.64,17.54-19.66,18.35-1.77.14-3.52.22-5.22.22ZM822.98,716.23h0Z"/>
      <path d="M801.43,714.67c0,2.6.87,4.55,3.03,5.41-16.02,1.3-23.81-6.28-23.81-16.89,0-6.49,2.6-14.72,8.01-23.6,7.79-12.99,16.89-25.33,16.89-30.09,0-1.73-.87-2.81-2.6-2.81-4.11,0-9.31,5.2-14.29,12.12,2.81-9.96,14.51-21.22,28.79-21.22,9.74,0,14.51,5.2,14.51,12.12,0,4.76-2.82,11.26-6.49,16.24-.87,1.08,0,1.52.65.65,10.82-15.15,21-29.01,33.34-29.01,8.66,0,14.5,4.11,14.5,11.91,0,14.29-13.21,23.6-23.6,23.6-6.06,0-10.17-1.52-12.77-3.68,3.68,0,14.72-15.59,14.72-22.3,0-1.73-1.08-1.95-1.95-1.95-4.55,0-11.04,7.58-24.25,24.68-10.39,13.86-24.46,34.64-24.68,44.81Z"/>
      <path d="M856.64,787.63c-44.92,0-47.2-28.31-47.2-33.99,0-14.92,10.66-30.01,31.16-33.47-1.95-4.41-3.01-9.34-3.01-14.59,0-12.55,5.64-23.8,14.2-36.64-2.53-4.78-3.26-10.49-1.7-16.01,5.07-17.92,24.18-36.98,49.63-36.98,9.4,0,17.65,2.86,23.88,7.78,7.14-4.77,15.31-7.35,23.75-7.35,21.41,0,36.37,14.07,36.37,34.21,0,12.79-6.43,24.86-14.21,38.19-2.25,3.88-4.41,7.62-6.48,11.2-10.18,17.64-18.22,31.58-26.66,42.96-21.7,29.24-49.27,44.69-79.74,44.69Z"/>
      <path d="M890.19,734.59c6.28-10.39,18.19-33.12,23.16-42.43l-.43-.43c-10.82,14.5-22.08,27.93-38.1,27.93-9.53,0-15.59-6.06-15.59-14.07,0-6.28,2.81-13.21,11.47-25.98,8.44-12.56,17.1-25.33,17.1-30.09,0-1.73-.87-2.81-2.6-2.81-4.11,0-9.31,5.2-14.29,12.12,2.82-9.96,14.51-21.22,28.79-21.22,9.74,0,14.51,5.2,14.51,12.12-.22,8.88-5.41,19.27-16.02,34.64-8.66,12.34-15.59,22.52-15.59,26.63,0,1.73.87,2.6,2.6,2.6,5.2,0,19.05-12.77,29.23-27.28,4.98-6.93,12.34-17.97,18.4-28.58,1.52-2.6,3.03-5.85,3.03-8.44,0-1.73-1.08-2.6-2.81-2.6-1.3,0-2.82.43-4.55,1.95,5.41-7.36,12.34-10.61,18.83-10.61,9.96,0,14.72,4.98,14.72,12.56s-5.2,16.89-11.26,27.28c-13.21,22.73-22.52,39.62-31.82,52.17-14.94,20.13-35.51,35.94-62.35,35.94-13.64,0-25.55-3.46-25.55-12.34,0-7.58,7.36-12.56,18.62-12.56,5.41,0,9.53,1.08,12.56,2.38-6.06,1.52-9.53,7.79-9.53,12.12,0,5.41,2.82,8.01,7.79,8.01,3.9,0,13.21-1.73,29.66-29.01Z"/>
    </g>
    <g>
      <path class="cls-2" d="M224.32,592.23c0,11.91,6.71,22.08,13.21,36.15,6.71,14.51,9.09,24.25,8.44,35.94-1.52,32.04-29.88,57.8-65.6,57.8-15.37,0-42-3.03-42-24.46,0-16.45,15.8-27.71,31.17-27.71,5.2,0,11.26,1.08,15.37,5.63-1.73-.43-3.25-.65-4.76-.65-11.69,0-22.08,10.39-22.08,24.46,0,16.24,10.82,20.78,22.73,20.78,27.71,0,39.18-22.73,39.18-40.05,0-13.64-4.55-21.43-14.5-41.35-5.41-10.82-7.14-20.78-7.14-28.58,0-24.25,20.57-46.33,46.33-46.33,7.36,0,12.99,1.95,14.72,6.49-2.81-3.03-7.36-3.46-11.26-3.46-13.42,0-23.81,9.74-23.81,25.33ZM240.99,557.15c24.9,0,41.78,11.69,41.78,29.44,0,16.24-14.72,23.38-23.81,23.38-3.9,0-6.71-.65-9.31-2.38,10.61-1.73,19.7-11.91,19.7-23.81,0-16.02-10.61-25.98-35.51-25.76,1.95-.43,4.33-.87,7.14-.87Z"/>
      <path class="cls-2" d="M300.96,693.76c0-4.11,1.3-7.58,2.16-9.31.43-.65,0-1.3-.65-.43-1.95,3.03-6.49,9.96-10.18,14.07-6.06,6.71-11.26,10.82-19.7,10.82-12.34,0-18.62-6.49-18.62-19.05,0-11.04,6.06-25.98,17.54-38.32,16.89-18.4,32.91-25.55,48.93-25.55,5.85,0,11.47,1.73,10.82,9.31,3.03,1.52,9.96,1.95,18.19,1.95,11.47,0,14.51-8.88,16.89-8.01-12.12,17.75-27.71,42.43-34.64,54.77-3.68,6.49-6.06,11.91-6.06,15.37,0,2.16,1.08,4.33,4.33,4.33,3.9,0,9.74-3.25,16.89-11.47,6.49-7.58,10.61-13.86,15.15-21.65-1.95,7.14-7.36,16.02-13.64,23.38-7.58,8.66-16.24,15.37-28.14,15.37-13.86,0-19.27-6.71-19.27-15.59ZM326.07,629.46c-8.23,0-25.33,25.98-31.18,35.07-4.98,8.01-17.97,28.14-17.97,36.37,0,1.95,1.08,3.03,2.81,3.03,2.6,0,6.49-2.38,12.56-9.53,7.79-9.09,22.08-32.04,25.98-38.32l10.82-17.97c.87-4.98,0-8.66-3.03-8.66Z"/>
      <path class="cls-2" d="M353.78,692.9c0-9.31,4.76-18.62,14.94-32.47,8.23-11.26,11.91-17.75,11.91-21.87,0-1.73-.87-2.81-2.6-2.81-4.11,0-9.31,5.2-14.29,12.12,2.81-9.96,14.51-21.22,28.79-21.22,9.74,0,15.15,5.2,15.15,12.12,0,8.23-6.71,19.48-15.15,31.82-10.18,14.72-15.37,23.16-15.37,28.79,0,2.16,1.3,4.55,4.55,4.55,3.9,0,9.96-3.46,17.1-11.69,6.49-7.58,10.61-13.86,15.15-21.65-1.95,7.14-7.36,16.02-13.64,23.38-7.58,8.66-16.24,15.37-28.14,15.37s-18.4-6.93-18.4-16.45ZM410.07,588.11c7.58,0,13.21,7.14,12.34,14.51-.87,8.23-8.23,15.15-16.89,15.15s-13.42-7.36-12.34-14.72c1.3-8.66,9.09-14.94,16.89-14.94Z"/>
      <path class="cls-2" d="M482.6,635.74c0-1.3-.65-2.38-2.38-2.38-4.76,0-14.29,7.79-27.93,25.55-6.71,8.88-14.72,21-20.57,31.17-5.63,9.74-9.09,17.75-7.36,19.05-9.74-.43-17.54-6.28-17.54-16.89,0-6.49,2.6-14.72,8.01-23.6,7.79-12.99,16.89-25.33,16.89-30.09,0-1.73-.87-2.81-2.6-2.81-4.11,0-9.31,5.2-14.29,12.12,2.81-9.96,14.51-21.22,28.79-21.22,9.74,0,14.51,5.2,14.51,12.12,0,4.76-2.81,11.26-6.49,16.24-.65,1.08,0,1.3.65.65,10.82-14.29,22.52-28.58,37.24-28.58,8.88,0,16.45,4.76,16.45,14.29,0,8.01-5.2,16.89-13.64,29.23-10.18,14.72-15.37,23.16-15.37,28.79,0,2.16,1.3,4.55,4.55,4.55,3.9,0,9.96-3.46,17.1-11.69,6.49-7.58,10.61-13.86,15.15-21.65-1.95,7.14-7.36,16.02-13.64,23.38-7.58,8.66-16.24,15.37-28.14,15.37-12.56,0-18.4-7.14-18.4-16.67,0-8.88,4.55-17.97,14.29-31.39,8.23-11.47,14.72-21.43,14.72-25.55Z"/>
      <path class="cls-2" d="M590.41,636.17c0,6.93-7.14,12.12-15.37,12.34.43-1.3.65-3.03.65-4.98,0-7.36-1.73-12.99-5.85-12.99-4.98,0-8.01,4.76-7.79,11.69.22,6.06,2.81,14.72,2.16,27.28-.43,10.39-4.98,19.92-11.26,26.63-3.68,3.9-7.14,5.63-10.61,7.14-1.08.43-.87.87.22.65,10.18-2.81,19.27-8.44,25.55-13.42,6.71-5.41,14.94-13.42,17.97-19.92-1.73,7.14-8.01,14.72-16.45,21.65-6.71,5.41-16.89,11.04-25.98,13.86-6.28,1.95-15.15,3.25-24.9,3.25-11.69,0-22.73-5.2-22.73-17.97,0-14.94,12.99-22.95,22.52-21.65,5.85-6.28,13.86-15.59,22.52-23.81,10.82-10.39,24.68-19.92,36.8-19.92,7.14,0,12.56,4.11,12.56,10.18ZM526.98,676.22c-6.28.87-15.37,11.04-15.37,22.95,0,4.98,1.95,8.23,6.49,8.23s7.58-3.68,10.39-9.74c3.9-8.44,5.63-19.92,9.74-32.26,4.11-12.56,11.91-24.46,22.3-31.39.65-.43.43-.65-.22-.43-5.2,2.38-13.64,9.74-18.19,14.29-8.01,7.79-13.86,15.37-21,22.52,1.73.43,4.55,2.6,5.85,5.84Z"/>
      <path class="cls-2" d="M626.57,650.68c6.71-9.74,17.32-23.6,30.53-23.6,10.61,0,16.67,5.85,16.67,16.45,0,9.96-4.33,22.95-12.34,33.99-15.37,21.22-35.07,31.61-57.15,31.61s-30.96-14.29-21.65-34.85c4.55-10.17,13.21-24.03,21.43-37.45,6.71-10.82,16.89-25.98,23.81-35.29,7.14-9.53,9.31-11.26,15.37-11.26,3.03,0,8.88.22,13.42.22,8.88,0,12.56-9.53,15.59-9.53-13.42,17.75-36.59,52.61-46.55,68.84-.87,1.3,0,2.16.87.87ZM600.8,700.9c0,2.6.87,5.41,4.76,5.41,6.28,0,12.77-9.53,28.58-35.29,10.61-17.32,16.45-29.66,16.45-34.21,0-1.95-.87-3.03-2.81-3.03-4.11,0-12.34,7.36-27.06,27.06-6.06,9.53-19.92,29.88-19.92,40.05Z"/>
      <path class="cls-2" d="M718.36,693.76c0-3.68,1.3-8.44,3.9-12.56.43-.65.22-1.08-.43-.43-10.82,14.5-22.08,27.93-38.1,27.93-9.53,0-15.59-6.06-15.59-14.07,0-6.28,2.81-13.21,11.47-25.98,8.44-12.56,17.1-25.33,17.1-30.09,0-1.73-.87-2.81-2.6-2.81-4.11,0-9.31,5.2-14.29,12.12,2.81-9.96,14.51-21.22,28.79-21.22,9.74,0,14.51,5.2,14.51,12.12-.22,8.88-6.71,21.43-16.02,34.64-8.66,12.34-15.59,22.52-15.59,26.63,0,1.73.87,2.6,2.6,2.6,5.2,0,19.05-12.77,29.23-27.28,4.98-6.93,12.34-17.97,18.4-28.58,1.52-2.6,3.03-5.85,3.03-8.44,0-1.73-1.08-2.6-2.81-2.6-1.3,0-2.81.43-4.55,1.95,5.41-7.36,12.34-10.61,18.84-10.61,9.96,0,14.72,4.98,14.72,12.56s-4.98,16.89-11.47,27.28c-8.66,13.86-16.67,25.76-16.67,32.26,0,2.6,1.3,4.76,4.55,4.76,3.9,0,9.31-3.46,16.45-11.69,6.49-7.58,10.61-13.86,15.15-21.65-1.95,7.14-7.14,16.24-13.64,23.38-8.23,9.31-15.8,15.37-28.58,15.37s-18.4-6.71-18.4-15.59Z"/>
      <path class="cls-2" d="M792.18,703.72c0,2.6.87,4.55,3.03,5.41-16.02,1.3-23.81-6.28-23.81-16.89,0-6.49,2.6-14.72,8.01-23.6,7.79-12.99,16.89-25.33,16.89-30.09,0-1.73-.87-2.81-2.6-2.81-4.11,0-9.31,5.2-14.29,12.12,2.81-9.96,14.51-21.22,28.79-21.22,9.74,0,14.51,5.2,14.51,12.12,0,4.76-2.82,11.26-6.49,16.24-.87,1.08,0,1.52.65.65,10.82-15.15,21-29.01,33.34-29.01,8.66,0,14.5,4.11,14.5,11.91,0,14.29-13.21,23.6-23.6,23.6-6.06,0-10.17-1.52-12.77-3.68,3.68,0,14.72-15.59,14.72-22.3,0-1.73-1.08-1.95-1.95-1.95-4.55,0-11.04,7.58-24.25,24.68-10.39,13.86-24.46,34.64-24.68,44.81Z"/>
      <path class="cls-2" d="M880.95,723.64c6.28-10.39,18.19-33.12,23.16-42.43l-.43-.43c-10.82,14.5-22.08,27.93-38.1,27.93-9.53,0-15.59-6.06-15.59-14.07,0-6.28,2.81-13.21,11.47-25.98,8.44-12.56,17.1-25.33,17.1-30.09,0-1.73-.87-2.81-2.6-2.81-4.11,0-9.31,5.2-14.29,12.12,2.82-9.96,14.51-21.22,28.79-21.22,9.74,0,14.51,5.2,14.51,12.12-.22,8.88-5.41,19.27-16.02,34.64-8.66,12.34-15.59,22.52-15.59,26.63,0,1.73.87,2.6,2.6,2.6,5.2,0,19.05-12.77,29.23-27.28,4.98-6.93,12.34-17.97,18.4-28.58,1.52-2.6,3.03-5.85,3.03-8.44,0-1.73-1.08-2.6-2.81-2.6-1.3,0-2.82.43-4.55,1.95,5.41-7.36,12.34-10.61,18.83-10.61,9.96,0,14.72,4.98,14.72,12.56s-5.2,16.89-11.26,27.28c-13.21,22.73-22.52,39.62-31.82,52.17-14.94,20.13-35.51,35.94-62.35,35.94-13.64,0-25.55-3.46-25.55-12.34,0-7.58,7.36-12.56,18.62-12.56,5.41,0,9.53,1.08,12.56,2.38-6.06,1.52-9.53,7.79-9.53,12.12,0,5.41,2.82,8.01,7.79,8.01,3.9,0,13.21-1.73,29.66-29.01Z"/>
    </g>
  </g>
  <g id="mystery">
    <g>
      <path d="M1102.68,874.65c-.98,0-1.96-.07-2.95-.21-24.99-3.62-41.3-22.5-43.83-49.99-12.79,15.23-25.52,28.79-37.67,37.54-3.34,2.47-11.68,7.84-21.1,7.84-7.57,0-14.5-3.62-18.54-9.68-.18-.27-.35-.55-.52-.82-1.04-1.73-9.5-17,6.95-29.52.67-4.41,1.23-9.76,1.84-15.69.16-1.5.31-3.03.48-4.6-6.29,6.85-12.55,13.33-18.25,19.24l-.73.76c-22.5,23.28-49.39,36.53-84.63,41.72-12.81,1.89-28.56,3.01-42.15,3.01s-24.84-1.1-33.41-3.27c-25.2-6.39-27.92-22.85-27.92-29.64,0-20.45,17.15-32.67,33.72-32.67,2.88,0,5.47.4,7.93,1.22,7.23,2.41,12.52,8.63,13.74,16.15.08.49.14.99.19,1.48,15.87-.23,34.88-12.41,38.98-14.51,18.84-9.74,49.82-30.69,74.38-56.52-1.91.27-3.77.4-5.53.4-22.82,0-38.15-14.92-38.15-37.13s17.34-38.15,28.82-48.81c.04-.04.08-.07.12-.11,18.76-17.15,42.88-27.38,64.51-27.38s44.44,6.15,62.03,11.09c5.71,1.6,13.11,3.68,17.38,4.47,3.29-3.1,7.57-5.07,12.21-5.49.62-.06,1.23-.08,1.84-.08,6.41,0,12.49,3.01,16.38,8.19,3.35,4.47,5.12,9.78,5.12,15.36,0,12.09-8.7,23.38-21.06,27.86-1.02,1.08-3.46,4.23-6.87,12.36,25.12-27.39,47.34-47.09,79.31-60.2,12.6-5.09,33.02-10.49,52.83-10.49,15.83,0,29,5.16,37.08,14.54,5.93,6.87,8.5,15.32,7.25,23.8-.05.34-.11.68-.18,1.02-1.66,8.32-6.67,15.12-13.74,18.66-2.88,1.44-6.02,2.16-9.16,2.16s-6.12-.69-8.95-2.06c-5.59-2.71-9.64-7.82-11.02-13.86-.14-.09-.44-.21-1.03-.21-2.42,0-24.89,2.19-69.11,77.92-26.39,45.25-30.58,65.18-30.97,72.47,4.83,5.71,6.24,13.76,3.32,20.93-3.17,7.8-10.74,12.77-18.96,12.77ZM963.41,708.95c4.17,1.14,7.95,3.59,10.71,7.11,2.35,2.99,3.77,6.51,4.22,10.16,8.28-8.24,17.81-17.41,27.47-26.03-7.96-1.31-16.09-2.21-25.02-2.21-6.54,0-12.79,1.63-15.2,3.97-.05.04-.09.09-.14.13-.41.39-1.84,2.61-2.05,6.87Z"/>
      <path d="M1123.15,915.1c-11.5,0-21.3-1.67-29.12-4.97-13.51-5.7-21.58-16.96-21.58-30.11,0-16.55,12.57-34.32,40.1-35.29-4.33-6-6.82-13.39-6.82-21.55,0-14.15,6.54-26.65,17.1-42.22,0,0,.65-.96.67-1-3.61-4.95-4.93-11.42-3.17-17.66,5.48-19.39,26.19-40.01,53.76-40.01,11.58,0,21.34,3.91,28.01,10.57,8.32-6.5,18.14-10.06,28.32-10.06,22.31,0,37.89,14.53,37.89,35.33,0,13.85-7.29,27.48-16.1,42.58-2.68,4.61-5.24,9.05-7.69,13.29-11.95,20.71-21.39,37.07-31.19,50.29-24.65,33.23-55.84,50.79-90.19,50.79Z"/>
      <path d="M1162.84,857.49c7.43-12.29,21.51-39.17,27.4-50.18l-.51-.51c-12.8,17.15-26.12,33.03-45.06,33.03-11.27,0-18.43-7.17-18.43-16.64,0-7.43,3.33-15.62,13.57-30.72,9.99-14.85,20.23-29.96,20.23-35.59,0-2.05-1.02-3.33-3.07-3.33-4.86,0-11.01,6.15-16.9,14.34,3.33-11.78,17.15-25.09,34.05-25.09,11.52,0,17.15,6.14,17.15,14.34-.26,10.5-6.4,22.79-18.95,40.97-10.24,14.59-18.43,26.63-18.43,31.49,0,2.05,1.02,3.07,3.07,3.07,6.14,0,22.53-15.11,34.57-32.26,5.89-8.19,14.59-21.25,21.76-33.8,1.79-3.07,3.58-6.91,3.58-9.99,0-2.05-1.28-3.07-3.33-3.07-1.54,0-3.33.51-5.38,2.3,6.4-8.71,14.59-12.55,22.28-12.55,11.78,0,17.41,5.89,17.41,14.85s-6.14,19.97-13.31,32.26c-15.62,26.88-26.63,46.86-37.64,61.71-17.67,23.81-41.99,42.5-73.74,42.5-16.13,0-30.21-4.1-30.21-14.59,0-8.96,8.71-14.85,22.02-14.85,6.4,0,11.27,1.28,14.85,2.82-7.17,1.79-11.27,9.22-11.27,14.34,0,6.4,3.33,9.47,9.22,9.47,4.61,0,15.62-2.05,35.08-34.31Z"/>
      <path d="M1257.32,861.08c-27.89,0-47.37-17.16-47.37-41.73s18.44-42.29,37.67-45.64c.08-.08.15-.17.23-.25,6.06-6.69,13.61-15.01,21.7-22.7,13.91-13.34,35.19-29.23,57.67-29.23,20.14,0,35.33,13.98,35.33,32.52,0,10-4.59,18.99-12.03,25.36,5.53,4.9,8.17,12.59,6.33,20.17-3.01,12.4-11.88,24.72-26.37,36.61-.05.04-.09.07-.14.11-10.42,8.4-24.8,16.07-37.53,20.01-9.88,3.07-22.49,4.76-35.5,4.76Z"/>
      <path d="M1342.06,754.05c0,8.19-8.45,14.34-18.18,14.59.51-1.54.77-3.58.77-5.89,0-8.71-2.05-15.36-6.91-15.36-5.89,0-9.47,5.63-9.22,13.83.26,7.17,3.33,17.41,2.56,32.26-.51,12.29-5.89,23.56-13.31,31.49-4.35,4.61-8.45,6.66-12.55,8.45-1.28.51-1.02,1.02.26.77,12.03-3.33,22.79-9.99,30.21-15.87,7.94-6.4,17.67-15.87,21.25-23.56-2.05,8.45-9.47,17.41-19.46,25.6-7.94,6.4-19.97,13.06-30.72,16.39-7.43,2.3-17.92,3.84-29.44,3.84-13.83,0-26.88-6.14-26.88-21.25,0-17.67,15.36-27.14,26.63-25.6,6.91-7.43,16.39-18.43,26.63-28.16,12.8-12.29,29.19-23.56,43.53-23.56,8.45,0,14.85,4.86,14.85,12.03ZM1267.04,801.42c-7.43,1.02-18.18,13.06-18.18,27.14,0,5.89,2.3,9.73,7.68,9.73s8.96-4.35,12.29-11.52c4.61-9.99,6.66-23.56,11.52-38.15,4.86-14.85,14.08-28.93,26.37-37.13.77-.51.51-.77-.26-.51-6.14,2.82-16.13,11.52-21.51,16.9-9.47,9.22-16.39,18.18-24.84,26.63,2.05.51,5.38,3.07,6.91,6.91Z"/>
      <path d="M1353.59,861.08c-25.36,0-43.78-16.16-44.79-39.31,0-.04,0-.09,0-.13-.38-10.24,2.06-20.39,7.67-31.97,2.92-5.99,7.25-13.39,11.85-20.76-1.58-1.64-2.63-3.23-3.26-4.34-3.89-6.87-3.71-15.12.46-22.08,6.73-11.22,19.25-11.22,23.96-11.22h3.99c2.82-4.05,5.69-8.06,7.84-10.99,8.8-12.35,16.98-21.79,34.77-21.79,1.85,0,4.13.05,6.78.11,2.1.05,4.4.1,6.55.13.4-.42.84-.88,1.19-1.26,3.25-3.49,9.3-9.99,19.54-9.99,7.86,0,15.03,4.5,18.45,11.58,3.42,7.08,2.48,15.5-2.42,21.65-3.99,5.02-10.11,13.59-15.78,21.81,2.61,4.56,3.49,9.96,2.43,15.29-1.69,8.43-7.99,14.99-16.46,17.1-1.68.42-3.32.65-5.12.77.15.06.3.12.45.18,9.48,3.98,14.54,14.36,11.84,24.28-3.07,11.25-10.38,24.21-20.05,35.55-.04.05-.09.1-.13.15-9.41,10.83-24.82,25.22-49.77,25.22Z"/>
      <path d="M1329.26,820.88c-.26-6.91,1.54-13.83,5.63-22.28,4.86-9.99,15.62-26.88,26.88-43.27h-16.13c-2.82,0-3.33-1.02-2.56-2.3s3.84-1.28,6.4-1.28h14.85c3.84-5.89,9.99-14.59,13.57-19.46,8.19-11.52,11.01-13.31,18.18-13.31,3.58,0,10.24.26,15.62.26,10.5,0,14.85-11.27,18.43-11.27-8.96,11.27-26.12,36.61-30.47,43.78h9.73c2.82,0,3.58.77,3.33,2.05s-1.28,1.54-6.14,1.54h-9.22c-14.34,20.23-26.63,40.97-33.54,54.54-2.82,5.63-4.86,11.52-4.86,16.64,0,2.05.51,7.68,6.66,7.68,4.61,0,11.78-4.1,20.23-13.83,7.68-8.96,12.55-16.39,17.92-25.6-2.3,8.45-8.45,18.95-15.87,27.65-10.24,11.78-20.23,18.18-34.31,18.18-15.11,0-23.81-7.94-24.32-19.72Z"/>
      <path d="M1422.46,860.82c-31.26,0-51.46-18.39-51.46-46.86,0-19.13,10.44-42.54,26.59-59.64,19.46-20.54,46.36-32.79,71.99-32.79,24.18,0,41.73,15.51,41.73,36.87,0,14.67-7.58,28.11-20.79,36.9.37,2.02.56,4.06.56,6.11,0,14.74-6.03,28.21-17.44,38.97-13.89,13.16-32.08,20.43-51.18,20.43ZM1453.75,748.1s0,0,0,0Z"/>
      <path d="M1455.74,822.16c5.63-5.89,14.85-18.43,13.06-27.4,1.02,1.79,1.79,4.1,1.79,6.66,0,6.66-2.05,15.62-11.01,24.07-9.73,9.22-22.79,14.85-37.13,14.85-20.23,0-30.98-9.47-30.98-26.37,0-13.06,7.94-31.75,21-45.58,18.43-19.46,41.48-26.37,57.1-26.37,12.8,0,21.25,6.4,21.25,16.39,0,16.9-18.69,27.14-37.89,27.14-5.12,0-9.99-2.05-11.78-4.86-12.29,17.92-19.46,37.38-19.46,45.83,0,6.91,3.33,9.99,9.47,9.99,5.38,0,15.87-5.12,24.58-14.34ZM1471.62,745.09c-5.63,0-13.06,11.01-20.23,20.48-2.56,3.58-6.66,9.47-9.22,13.57,1.02,1.79,3.07,2.82,5.12,3.07,11.52,1.02,26.88-22.28,26.88-33.29,0-2.82-.77-3.84-2.56-3.84Z"/>
      <path d="M1503.62,860.99c-26.23,0-44.55-16.71-44.55-40.63,0-11.84,4.3-25.15,12.43-38.51.36-.6.72-1.19,1.08-1.78-3.68-4.96-5.03-11.49-3.26-17.77,5.48-19.39,26.19-40.01,53.76-40.01,9.95,0,18.56,2.89,25.02,7.93,7.22-4.87,15.32-7.93,24.65-7.93,22.16,0,37.64,14.21,37.64,34.57,0,13.61-5.74,26.24-16.18,35.56-9.12,8.15-20.86,12.83-32.22,12.83-7.67,0-13.8-1.42-18.6-3.39-10.29,14.52-15.34,23.98-17.49,29.05,1.93,3.74,2.73,8.08,2.06,12.47-1.42,9.4-9.12,16.59-18.6,17.36-1.95.16-3.89.24-5.76.24Z"/>
      <path d="M1504.13,833.94c0,3.07,1.02,5.38,3.58,6.4-18.95,1.54-28.16-7.43-28.16-19.97,0-7.68,3.07-17.41,9.47-27.91,9.22-15.36,19.97-29.96,19.97-35.59,0-2.05-1.02-3.33-3.07-3.33-4.86,0-11.01,6.15-16.9,14.34,3.33-11.78,17.15-25.09,34.05-25.09,11.52,0,17.15,6.14,17.15,14.34,0,5.63-3.33,13.31-7.68,19.2-1.02,1.28,0,1.79.77.77,12.8-17.92,24.84-34.31,39.43-34.31,10.24,0,17.15,4.86,17.15,14.08,0,16.9-15.62,27.91-27.91,27.91-7.17,0-12.03-1.79-15.11-4.35,4.35,0,17.41-18.43,17.41-26.37,0-2.05-1.28-2.3-2.3-2.3-5.38,0-13.06,8.96-28.68,29.19-12.29,16.39-28.93,40.97-29.19,53Z"/>
      <path d="M1569.42,915.1c-11.5,0-21.3-1.67-29.12-4.97-13.51-5.7-21.58-16.96-21.58-30.11,0-16.55,12.57-34.32,40.1-35.29-4.33-6-6.82-13.39-6.82-21.55,0-14.15,6.54-26.65,17.1-42.22,0,0,.65-.96.67-1-3.61-4.95-4.93-11.42-3.17-17.66,5.48-19.39,26.19-40.01,53.76-40.01,11.58,0,21.34,3.91,28.01,10.57,8.32-6.5,18.14-10.06,28.32-10.06,22.31,0,37.89,14.53,37.89,35.33,0,13.85-7.29,27.48-16.1,42.58-2.68,4.61-5.24,9.05-7.69,13.29-11.95,20.71-21.39,37.07-31.19,50.29-24.65,33.23-55.84,50.79-90.19,50.79Z"/>
      <path d="M1609.11,857.49c7.43-12.29,21.51-39.17,27.4-50.18l-.51-.51c-12.8,17.15-26.12,33.03-45.06,33.03-11.27,0-18.43-7.17-18.43-16.64,0-7.43,3.33-15.62,13.57-30.72,9.99-14.85,20.23-29.96,20.23-35.59,0-2.05-1.02-3.33-3.07-3.33-4.86,0-11.01,6.15-16.9,14.34,3.33-11.78,17.15-25.09,34.05-25.09,11.52,0,17.15,6.14,17.15,14.34-.26,10.5-6.4,22.79-18.95,40.97-10.24,14.59-18.43,26.63-18.43,31.49,0,2.05,1.02,3.07,3.07,3.07,6.14,0,22.53-15.11,34.57-32.26,5.89-8.19,14.59-21.25,21.76-33.8,1.79-3.07,3.58-6.91,3.58-9.99,0-2.05-1.28-3.07-3.33-3.07-1.54,0-3.33.51-5.38,2.3,6.4-8.71,14.59-12.55,22.28-12.55,11.78,0,17.41,5.89,17.41,14.85s-6.14,19.97-13.31,32.26c-15.62,26.88-26.63,46.86-37.64,61.71-17.67,23.81-41.99,42.5-73.74,42.5-16.13,0-30.21-4.1-30.21-14.59,0-8.96,8.71-14.85,22.02-14.85,6.4,0,11.27,1.28,14.85,2.82-7.17,1.79-11.27,9.22-11.27,14.34,0,6.4,3.33,9.47,9.22,9.47,4.61,0,15.62-2.05,35.08-34.31Z"/>
    </g>
    <g>
      <path class="cls-2" d="M959.81,754.31c16.64-17.92,63.45-66,86.75-77.01-25.09-2.56-46.09-10.75-75.02-10.75-8.96,0-21.51,2.05-29.44,9.73-5.12,4.86-8.45,13.06-8.45,22.79s4.61,16.39,10.5,18.18c1.54.51,3.07.77,4.61.51-2.3,5.38-9.22,7.68-14.34,7.68-9.73,0-17.67-4.35-17.67-16.64s11.52-23.81,22.28-33.8c14.85-13.57,34.05-22.02,50.7-22.02,32.77,0,67.59,15.87,81.93,15.87,8.19,0,9.99-2.82,11.52-5.89.77,1.02,1.02,2.05,1.02,3.07,0,3.58-3.84,7.68-8.71,8.96-11.52,4.35-21,27.14-29.44,60.68-5.12,20.48-14.59,49.42-28.42,74,19.72-21.51,38.66-49.16,57.35-70.67,30.72-35.08,53.26-59.4,88.85-74,12.03-4.86,29.44-8.96,45.06-8.96,16.64,0,25.09,7.94,24.07,14.85-.51,2.56-1.79,3.84-2.82,4.35-1.79-8.71-9.99-16.13-21-16.13-29.96,0-64.52,49.93-86.8,88.08-19.72,33.8-33.8,64.78-33.8,83.98,0,5.63,2.05,9.99,4.86,12.03-19.46-2.82-26.63-19.46-26.63-37.38,0-14.34,3.84-32.52,18.18-57.1,12.29-19.97,30.72-46.86,51.98-63.5,1.54-1.28,1.28-2.3-.77-1.02-21.51,16.13-32.01,27.65-57.35,56.84-23.56,27.14-56.58,75.28-81.93,93.46-4.1,3.07-9.47,4.86-10.5,3.33-.77-1.28,1.02-2.05,4.1-4.35,2.05-1.54,3.84-3.33,4.35-5.12,3.58-15.87,3.33-42.5,11.01-71.44,8.19-29.19,18.18-48.14,31.75-67.6.77-1.02.26-1.54-.77-.51-15.36,12.8-34.82,45.32-49.16,66.06-12.29,17.41-30.53,34.01-44.61,48.61-22.28,23.04-62.68,38.26-88.3,42.04-25.34,3.73-65.52.22-65.52-15.66,0-11.27,10.22-16.42,12.52-15.66-9.27,6.73-4.36,14.87.94,17.07,3.68,1.53,16.46,3.74,32.56,1.57,17.38-2.35,35.34-10.1,42.98-14.09,10.62-5.55,26.72-13.71,38.77-23.69,17.95-14.87,32.07-29.26,42.79-40.75Z"/>
      <path class="cls-2" d="M1153.59,846.54c7.43-12.29,21.51-39.17,27.4-50.18l-.51-.51c-12.8,17.15-26.12,33.03-45.06,33.03-11.27,0-18.43-7.17-18.43-16.64,0-7.43,3.33-15.62,13.57-30.72,9.99-14.85,20.23-29.96,20.23-35.59,0-2.05-1.02-3.33-3.07-3.33-4.86,0-11.01,6.15-16.9,14.34,3.33-11.78,17.15-25.09,34.05-25.09,11.52,0,17.15,6.14,17.15,14.34-.26,10.5-6.4,22.79-18.95,40.97-10.24,14.59-18.43,26.63-18.43,31.49,0,2.05,1.02,3.07,3.07,3.07,6.14,0,22.53-15.11,34.57-32.26,5.89-8.19,14.59-21.25,21.76-33.8,1.79-3.07,3.58-6.91,3.58-9.99,0-2.05-1.28-3.07-3.33-3.07-1.54,0-3.33.51-5.38,2.3,6.4-8.71,14.59-12.55,22.28-12.55,11.78,0,17.41,5.89,17.41,14.85s-6.14,19.97-13.31,32.26c-15.62,26.88-26.63,46.86-37.64,61.71-17.67,23.81-41.99,42.5-73.74,42.5-16.13,0-30.21-4.1-30.21-14.59,0-8.96,8.71-14.85,22.02-14.85,6.4,0,11.27,1.28,14.85,2.82-7.17,1.79-11.27,9.22-11.27,14.34,0,6.4,3.33,9.47,9.22,9.47,4.61,0,15.62-2.05,35.08-34.31Z"/>
      <path class="cls-2" d="M1332.82,743.1c0,8.19-8.45,14.34-18.18,14.59.51-1.54.77-3.58.77-5.89,0-8.71-2.05-15.36-6.91-15.36-5.89,0-9.47,5.63-9.22,13.83.26,7.17,3.33,17.41,2.56,32.26-.51,12.29-5.89,23.56-13.31,31.49-4.35,4.61-8.45,6.66-12.55,8.45-1.28.51-1.02,1.02.26.77,12.03-3.33,22.79-9.99,30.21-15.87,7.94-6.4,17.67-15.87,21.25-23.56-2.05,8.45-9.47,17.41-19.46,25.6-7.94,6.4-19.97,13.06-30.72,16.39-7.43,2.3-17.92,3.84-29.44,3.84-13.83,0-26.88-6.14-26.88-21.25,0-17.67,15.36-27.14,26.63-25.6,6.91-7.43,16.39-18.43,26.63-28.16,12.8-12.29,29.19-23.56,43.53-23.56,8.45,0,14.85,4.86,14.85,12.03ZM1257.8,790.47c-7.43,1.02-18.18,13.06-18.18,27.14,0,5.89,2.3,9.73,7.68,9.73s8.96-4.35,12.29-11.52c4.61-9.99,6.66-23.56,11.52-38.15,4.86-14.85,14.08-28.93,26.37-37.13.77-.51.51-.77-.26-.51-6.14,2.82-16.13,11.52-21.51,16.9-9.47,9.22-16.39,18.18-24.84,26.63,2.05.51,5.38,3.07,6.91,6.91Z"/>
      <path class="cls-2" d="M1320.02,809.93c-.26-6.91,1.54-13.83,5.63-22.28,4.86-9.99,15.62-26.88,26.88-43.27h-16.13c-2.82,0-3.33-1.02-2.56-2.3s3.84-1.28,6.4-1.28h14.85c3.84-5.89,9.99-14.59,13.57-19.46,8.19-11.52,11.01-13.31,18.18-13.31,3.58,0,10.24.26,15.62.26,10.5,0,14.85-11.27,18.43-11.27-8.96,11.27-26.12,36.61-30.47,43.78h9.73c2.82,0,3.58.77,3.33,2.05s-1.28,1.54-6.14,1.54h-9.22c-14.34,20.23-26.63,40.97-33.54,54.54-2.82,5.63-4.86,11.52-4.86,16.64,0,2.05.51,7.68,6.66,7.68,4.61,0,11.78-4.1,20.23-13.83,7.68-8.96,12.55-16.39,17.92-25.6-2.3,8.45-8.45,18.95-15.87,27.65-10.24,11.78-20.23,18.18-34.31,18.18-15.11,0-23.81-7.94-24.32-19.72Z"/>
      <path class="cls-2" d="M1446.5,811.21c5.63-5.89,14.85-18.43,13.06-27.4,1.02,1.79,1.79,4.1,1.79,6.66,0,6.66-2.05,15.62-11.01,24.07-9.73,9.22-22.79,14.85-37.13,14.85-20.23,0-30.98-9.47-30.98-26.37,0-13.06,7.94-31.75,21-45.58,18.43-19.46,41.48-26.37,57.1-26.37,12.8,0,21.25,6.4,21.25,16.39,0,16.9-18.69,27.14-37.89,27.14-5.12,0-9.99-2.05-11.78-4.86-12.29,17.92-19.46,37.38-19.46,45.83,0,6.91,3.33,9.99,9.47,9.99,5.38,0,15.87-5.12,24.58-14.34ZM1462.37,734.14c-5.63,0-13.06,11.01-20.23,20.48-2.56,3.58-6.66,9.47-9.22,13.57,1.02,1.79,3.07,2.82,5.12,3.07,11.52,1.02,26.88-22.28,26.88-33.29,0-2.82-.77-3.84-2.56-3.84Z"/>
      <path class="cls-2" d="M1494.89,822.98c0,3.07,1.02,5.38,3.58,6.4-18.95,1.54-28.16-7.43-28.16-19.97,0-7.68,3.07-17.41,9.47-27.91,9.22-15.36,19.97-29.96,19.97-35.59,0-2.05-1.02-3.33-3.07-3.33-4.86,0-11.01,6.15-16.9,14.34,3.33-11.78,17.15-25.09,34.05-25.09,11.52,0,17.15,6.14,17.15,14.34,0,5.63-3.33,13.31-7.68,19.2-1.02,1.28,0,1.79.77.77,12.8-17.92,24.84-34.31,39.43-34.31,10.24,0,17.15,4.86,17.15,14.08,0,16.9-15.62,27.91-27.91,27.91-7.17,0-12.03-1.79-15.11-4.35,4.35,0,17.41-18.43,17.41-26.37,0-2.05-1.28-2.3-2.3-2.3-5.38,0-13.06,8.96-28.68,29.19-12.29,16.39-28.93,40.97-29.19,53Z"/>
      <path class="cls-2" d="M1599.86,846.54c7.43-12.29,21.51-39.17,27.4-50.18l-.51-.51c-12.8,17.15-26.12,33.03-45.06,33.03-11.27,0-18.43-7.17-18.43-16.64,0-7.43,3.33-15.62,13.57-30.72,9.99-14.85,20.23-29.96,20.23-35.59,0-2.05-1.02-3.33-3.07-3.33-4.86,0-11.01,6.15-16.9,14.34,3.33-11.78,17.15-25.09,34.05-25.09,11.52,0,17.15,6.14,17.15,14.34-.26,10.5-6.4,22.79-18.95,40.97-10.24,14.59-18.43,26.63-18.43,31.49,0,2.05,1.02,3.07,3.07,3.07,6.14,0,22.53-15.11,34.57-32.26,5.89-8.19,14.59-21.25,21.76-33.8,1.79-3.07,3.58-6.91,3.58-9.99,0-2.05-1.28-3.07-3.33-3.07-1.54,0-3.33.51-5.38,2.3,6.4-8.71,14.59-12.55,22.28-12.55,11.78,0,17.41,5.89,17.41,14.85s-6.14,19.97-13.31,32.26c-15.62,26.88-26.63,46.86-37.64,61.71-17.67,23.81-41.99,42.5-73.74,42.5-16.13,0-30.21-4.1-30.21-14.59,0-8.96,8.71-14.85,22.02-14.85,6.4,0,11.27,1.28,14.85,2.82-7.17,1.79-11.27,9.22-11.27,14.34,0,6.4,3.33,9.47,9.22,9.47,4.61,0,15.62-2.05,35.08-34.31Z"/>
    </g>
  </g>
</svg>